<svg version="1.1" preserveAspectRatio="none" xmlns="http://www.w3.org/2000/svg" width="500" height="500" viewBox="0 0 500 500"><rect width="100%" height="100%" fill="#2A3C47" fill-opacity="1"/><svg viewBox="247.2756 402.6526 475.6963 124.4" width="333" height="87.08329242838342" x="83.5px" y="206.4584px" xmlns="http://www.w3.org/2000/svg" xmlns:xlink="http://www.w3.org/1999/xlink" preserveAspectRatio="none"><defs></defs><style>.companyName {fill:#EBE7D9;fill-opacity:1;}.icon3-str {stroke:#F55139;stroke-opacity:1;}.text {fill:#EBE7D9;fill-opacity:1;}</style><g opacity="1" transform="rotate(0 247.2756 504.6526)">
<svg width="475.6963" height="22.4" x="247.2756" y="504.6526" version="1.1" preserveAspectRatio="none" viewBox="0.4688 -28.1641 781.2695 36.7969">
  <g transform="matrix(1 0 0 1 0 0)" class="text"><path id="id-6izo4zJp47" d="M0.47-1.43L1.48-7.25L2.75-7.25L2.77-3.52Q3.42-2.54 4.97-1.87Q6.52-1.19 8.26-1.19L8.26-1.19Q11.46-1.19 13.19-2.71Q14.92-4.22 14.92-6.93L14.92-6.93Q14.92-7.99 14.45-8.77Q13.98-9.55 13.20-10.18Q12.42-10.80 11.44-11.33Q10.45-11.86 9.41-12.39Q8.38-12.93 7.39-13.54Q6.41-14.16 5.63-14.97Q4.84-15.78 4.38-16.84Q3.91-17.89 3.91-19.32L3.91-19.32Q3.91-22.79 6.27-24.64Q8.63-26.48 13.03-26.48L13.03-26.48Q16.39-26.48 19.36-25.74L19.36-25.74L18.40-20.29L17.13-20.29L17.03-23.63Q16.41-24.14 15.29-24.49Q14.18-24.84 12.73-24.84L12.73-24.84Q10.14-24.84 8.73-23.57Q7.32-22.30 7.32-20.02L7.32-20.02Q7.32-18.79 8.20-17.77Q9.08-16.76 10.82-15.88L10.82-15.88Q13.48-14.49 14.65-13.77Q15.82-13.05 16.61-12.23Q17.40-11.41 17.88-10.35Q18.36-9.30 18.36-7.93L18.36-7.93Q18.36-3.91 15.73-1.76Q13.11 0.39 8.14 0.39L8.14 0.39Q5.68 0.39 3.72-0.11Q1.76-0.61 0.47-1.43L0.47-1.43Z M25.16-3.40L25.16-3.40Q25.16-2.52 25.60-2.08Q26.04-1.64 26.72-1.64L26.72-1.64Q28.14-1.64 29.69-2.23L29.69-2.23L30.10-1.31Q27.70 0.39 25.23 0.39L25.23 0.39Q23.69 0.39 22.80-0.55Q21.91-1.48 21.91-3.16L21.91-3.16Q21.91-3.73 22.02-4.50Q22.13-5.27 24.16-16.72L24.16-16.72L21.76-16.72L21.91-17.60L24.51-18.36L27.19-22.52L28.44-22.52L27.71-18.36L31.91-18.36L31.60-16.72L27.40-16.72L25.51-6.00Q25.16-4.20 25.16-3.40Z M45.25-18.85L45.25-18.85Q46.23-18.85 46.80-18.69L46.80-18.69L45.94-13.89L45.10-13.89L44.36-16.37Q42.79-16.37 41.12-15.18Q39.45-13.98 38.07-12.03L38.07-12.03L35.98 0L32.73 0L35.72-16.99L33.42-17.48L33.57-18.36L38.98-18.36L38.38-14.22Q39.84-16.43 41.65-17.64Q43.46-18.85 45.25-18.85Z M62.05-14.84L62.05-14.84Q62.05-12.19 58.77-10.31Q55.49-8.44 49.96-8.07L49.96-8.07L49.88-6.64Q49.88-4.16 50.93-2.90Q51.97-1.64 54.02-1.64L54.02-1.64Q55.78-1.64 57.27-2.24Q58.75-2.83 60.04-3.59L60.04-3.59L60.61-2.77Q58.81-1.25 56.81-0.43Q54.80 0.39 53.01 0.39L53.01 0.39Q49.84 0.39 48.13-1.38Q46.43-3.14 46.43-6.45L46.43-6.45Q46.43-9.71 47.80-12.53Q49.18-15.35 51.62-17.10Q54.06-18.85 56.74-18.85L56.74-18.85Q59.14-18.85 60.60-17.74Q62.05-16.64 62.05-14.84ZM50.12-9.30L50.12-9.30Q53.98-9.59 56.31-11.11Q58.63-12.64 58.63-14.84L58.63-14.84Q58.63-15.94 58.04-16.64Q57.44-17.34 56.31-17.34L56.31-17.34Q54.94-17.34 53.65-16.23Q52.36-15.12 51.43-13.24Q50.49-11.37 50.12-9.30Z M81.45-18.67L78.36-1.37L80.57-0.88L80.41 0L74.84 0L75.41-3.05Q72.11 0.41 69.38 0.41L69.38 0.41Q67.01 0.41 65.58-1.33Q64.14-3.07 64.14-6.11L64.14-6.11Q64.14-9.53 65.63-12.51Q67.13-15.49 69.63-17.16Q72.13-18.83 75.06-18.83L75.06-18.83Q77.42-18.83 79.51-18.01L79.51-18.01L80.39-18.67L81.45-18.67ZM75.66-4.75L77.79-16.35Q77.03-16.88 76.37-17.08Q75.70-17.29 74.73-17.29L74.73-17.29Q72.77-17.29 71.14-15.81Q69.51-14.34 68.57-11.84Q67.64-9.34 67.64-6.62L67.64-6.62Q67.64-4.53 68.50-3.28Q69.36-2.03 70.84-2.03L70.84-2.03Q73.05-2.03 75.66-4.75L75.66-4.75Z M100-14.57L100-14.57Q101.33-16.46 103.01-17.66Q104.69-18.85 106.23-18.85L106.23-18.85Q107.87-18.85 108.82-17.80Q109.77-16.76 109.77-14.79L109.77-14.79Q109.77-14.36 109.68-13.66Q109.59-12.97 107.60-1.37L107.60-1.37L110.16-0.88L109.98 0L104.10 0L106.11-11.37Q106.56-13.73 106.56-14.61L106.56-14.61Q106.56-15.49 106.15-16.03Q105.74-16.56 104.86-16.56L104.86-16.56Q104.00-16.56 102.81-15.74Q101.62-14.92 100.65-13.64Q99.69-12.36 99.49-11.25L99.49-11.25L97.56 0L94.32 0L96.31-11.37Q96.80-13.93 96.80-14.61L96.80-14.61Q96.80-15.49 96.37-16.03Q95.94-16.56 95.02-16.56L95.02-16.56Q94.16-16.56 92.91-15.69Q91.66-14.82 90.70-13.58Q89.75-12.34 89.57-11.25L89.57-11.25L87.64 0L84.39 0L87.38-16.99L85.08-17.48L85.23-18.36L90.66-18.36L90.12-14.57Q91.48-16.50 93.18-17.68Q94.88-18.85 96.39-18.85L96.39-18.85Q98.11-18.85 99.05-17.76Q100-16.68 100-14.57Z M122.07-27.75L117.44-1.37L120.51-0.88L120.35 0L113.96 0L118.59-26.41L116.07-26.88L116.23-27.75L122.07-27.75Z M131.64-18.36L128.65-1.37L131.72-0.88L131.56 0L125.18 0L128.16-16.99L125.64-17.48L125.80-18.36L131.64-18.36ZM132.85-24.36L132.85-24.36Q132.85-23.50 132.23-22.87Q131.60-22.25 130.72-22.25L130.72-22.25Q129.86-22.25 129.24-22.87Q128.61-23.50 128.61-24.36L128.61-24.36Q128.61-25.23 129.24-25.86Q129.86-26.48 130.72-26.48L130.72-26.48Q131.60-26.48 132.23-25.86Q132.85-25.23 132.85-24.36Z M148.81-14.61L148.81-14.61Q148.81-15.49 148.34-16.04Q147.87-16.58 146.86-16.58L146.86-16.58Q145.41-16.58 143.70-15.35Q141.99-14.12 140.88-12.30L140.88-12.30L138.73 0L135.49 0L138.48-17.01L136.17-17.50L136.33-18.38L141.76-18.38L141.23-14.63Q142.87-16.74 144.63-17.79Q146.39-18.85 148.09-18.85L148.09-18.85Q150.06-18.85 151.05-17.78Q152.05-16.72 152.05-14.73L152.05-14.73Q152.05-14.45 151.97-13.89Q151.89-13.32 149.84-1.35L149.84-1.35L152.40-0.88L152.25 0L146.37 0L148.36-11.37Q148.81-13.85 148.81-14.61Z M162.75-18.36L159.77-1.37L162.83-0.88L162.68 0L156.29 0L159.28-16.99L156.76-17.48L156.91-18.36L162.75-18.36ZM163.96-24.36L163.96-24.36Q163.96-23.50 163.34-22.87Q162.71-22.25 161.84-22.25L161.84-22.25Q160.98-22.25 160.35-22.87Q159.73-23.50 159.73-24.36L159.73-24.36Q159.73-25.23 160.35-25.86Q160.98-26.48 161.84-26.48L161.84-26.48Q162.71-26.48 163.34-25.86Q163.96-25.23 163.96-24.36Z M179.92-14.61L179.92-14.61Q179.92-15.49 179.45-16.04Q178.98-16.58 177.97-16.58L177.97-16.58Q176.52-16.58 174.81-15.35Q173.11-14.12 171.99-12.30L171.99-12.30L169.84 0L166.60 0L169.59-17.01L167.29-17.50L167.44-18.38L172.87-18.38L172.34-14.63Q173.98-16.74 175.74-17.79Q177.50-18.85 179.20-18.85L179.20-18.85Q181.17-18.85 182.17-17.78Q183.16-16.72 183.16-14.73L183.16-14.73Q183.16-14.45 183.09-13.89Q183.01-13.32 180.96-1.35L180.96-1.35L183.52-0.88L183.36 0L177.48 0L179.47-11.37Q179.92-13.85 179.92-14.61Z M193.34-2.03L193.34-2.03Q194.43-2.03 195.77-2.75Q197.11-3.48 198.38-4.75L198.38-4.75L200.53-16.82Q200.06-16.93 199.69-17.03Q199.32-17.13 198.96-17.19Q198.59-17.25 198.18-17.28Q197.77-17.30 197.25-17.30L197.25-17.30Q195.29-17.30 193.61-15.84Q191.93-14.38 190.98-11.89Q190.02-9.41 190.02-6.62L190.02-6.62Q190.02-4.51 190.89-3.27Q191.76-2.03 193.34-2.03ZM197.34 1.46L198.11-3.13Q196.70-1.58 194.97-0.59Q193.24 0.41 191.86 0.41L191.86 0.41Q189.38 0.41 187.95-1.34Q186.52-3.09 186.52-6.11L186.52-6.11Q186.52-9.53 188.02-12.47Q189.51-15.41 192.06-17.12Q194.61-18.83 197.60-18.83L197.60-18.83Q198.77-18.83 200.65-18.60Q202.54-18.38 204.00-18.03L204.00-18.03L200.72 0.68Q200 4.80 197.90 6.66Q195.80 8.52 191.70 8.52L191.70 8.52Q189.98 8.52 188.14 8.12Q186.31 7.71 185.20 7.13L185.20 7.13L185.55 2.68L186.43 2.68L187.13 5.14Q188.71 6.68 191.68 6.68L191.68 6.68Q194.06 6.68 195.47 5.44Q196.88 4.20 197.34 1.46L197.34 1.46Z M223.95-12.03L227.13-12.03Q234.71-12.03 234.71-19.00L234.71-19.00Q234.71-21.80 233.29-23.12Q231.88-24.43 229.02-24.43L229.02-24.43L226.13-24.43L223.95-12.03ZM227.56-10.27L223.63-10.27L222.09-1.56L226.37-1.04L226.17 0L214.96 0L215.16-1.04L218.32-1.56L222.40-24.65L219.12-25.16L219.32-26.19L229.80-26.19Q234.02-26.19 236.31-24.44Q238.59-22.70 238.59-19.26L238.59-19.26Q238.59-14.88 235.73-12.58Q232.87-10.27 227.56-10.27L227.56-10.27Z M253.75-18.85L253.75-18.85Q254.73-18.85 255.29-18.69L255.29-18.69L254.43-13.89L253.59-13.89L252.85-16.37Q251.29-16.37 249.62-15.18Q247.95-13.98 246.56-12.03L246.56-12.03L244.47 0L241.23 0L244.22-16.99L241.91-17.48L242.07-18.36L247.48-18.36L246.88-14.22Q248.34-16.43 250.15-17.64Q251.95-18.85 253.75-18.85Z M258.32-6.64L258.32-6.64Q258.32-4.00 259.35-2.61Q260.37-1.21 262.21-1.21L262.21-1.21Q263.98-1.21 265.60-2.64Q267.21-4.06 268.14-6.53Q269.08-9.00 269.08-11.84L269.08-11.84Q269.08-14.53 268.06-15.93Q267.03-17.32 265.12-17.32L265.12-17.32Q263.34-17.32 261.75-15.90Q260.16-14.47 259.24-12.00Q258.32-9.53 258.32-6.64ZM262.03 0.39L262.03 0.39Q258.79 0.39 256.84-1.69Q254.88-3.77 254.88-7.30L254.88-7.30Q254.88-10.45 256.23-13.13Q257.58-15.80 259.97-17.32Q262.36-18.85 265.35-18.85L265.35-18.85Q268.59-18.85 270.55-16.77Q272.50-14.69 272.50-11.15L272.50-11.15Q272.50-8.01 271.15-5.33Q269.80-2.66 267.41-1.13Q265.02 0.39 262.03 0.39Z M288.22-3.59L288.81-2.77Q287.23-1.31 285.25-0.46Q283.28 0.39 281.50 0.39L281.50 0.39Q278.36 0.39 276.64-1.43Q274.92-3.24 274.92-6.45L274.92-6.45Q274.92-9.84 276.29-12.65Q277.66-15.45 280.19-17.15Q282.71-18.85 285.49-18.85L285.49-18.85Q286.88-18.85 288.44-18.55Q290-18.26 291.02-17.83L291.02-17.83L290.14-12.71L289.06-12.71L288.75-16.11Q287.52-17.34 285.47-17.34L285.47-17.34Q283.59-17.34 281.96-15.96Q280.33-14.57 279.36-12.09Q278.38-9.61 278.38-6.64L278.38-6.64Q278.38-1.64 282.40-1.64L282.40-1.64Q285.20-1.64 288.22-3.59L288.22-3.59Z M296.68-3.77L296.68-3.77Q296.68-2.89 297.15-2.34Q297.62-1.80 298.63-1.80L298.63-1.80Q300.10-1.80 301.80-3.02Q303.50-4.24 304.59-6.02L304.59-6.02L306.76-18.36L310-18.36L307.01-1.37L309.32-0.88L309.16 0L303.73 0L304.26-3.77Q302.64-1.68 300.88-0.61Q299.12 0.47 297.40 0.47L297.40 0.47Q295.43 0.47 294.43-0.60Q293.44-1.66 293.44-3.65L293.44-3.65Q293.44-3.95 293.54-4.70Q293.65-5.45 295.64-17.01L295.64-17.01L293.48-17.48L293.63-18.36L299.12-18.36L297.13-7.01Q296.68-4.55 296.68-3.77Z M325.59-18.85L325.59-18.85Q326.56-18.85 327.13-18.69L327.13-18.69L326.27-13.89L325.43-13.89L324.69-16.37Q323.13-16.37 321.46-15.18Q319.79-13.98 318.40-12.03L318.40-12.03L316.31 0L313.07 0L316.05-16.99L313.75-17.48L313.91-18.36L319.32-18.36L318.71-14.22Q320.18-16.43 321.98-17.64Q323.79-18.85 325.59-18.85Z M342.38-14.84L342.38-14.84Q342.38-12.19 339.10-10.31Q335.82-8.44 330.29-8.07L330.29-8.07L330.21-6.64Q330.21-4.16 331.26-2.90Q332.30-1.64 334.36-1.64L334.36-1.64Q336.11-1.64 337.60-2.24Q339.08-2.83 340.37-3.59L340.37-3.59L340.94-2.77Q339.14-1.25 337.14-0.43Q335.14 0.39 333.34 0.39L333.34 0.39Q330.18 0.39 328.47-1.38Q326.76-3.14 326.76-6.45L326.76-6.45Q326.76-9.71 328.13-12.53Q329.51-15.35 331.95-17.10Q334.39-18.85 337.07-18.85L337.07-18.85Q339.47-18.85 340.93-17.74Q342.38-16.64 342.38-14.84ZM330.45-9.30L330.45-9.30Q334.32-9.59 336.64-11.11Q338.96-12.64 338.96-14.84L338.96-14.84Q338.96-15.94 338.37-16.64Q337.77-17.34 336.64-17.34L336.64-17.34Q335.27-17.34 333.98-16.23Q332.70-15.12 331.76-13.24Q330.82-11.37 330.45-9.30Z M360.33-14.57L360.33-14.57Q361.66-16.46 363.34-17.66Q365.02-18.85 366.56-18.85L366.56-18.85Q368.20-18.85 369.15-17.80Q370.10-16.76 370.10-14.79L370.10-14.79Q370.10-14.36 370.01-13.66Q369.92-12.97 367.93-1.37L367.93-1.37L370.49-0.88L370.31 0L364.43 0L366.45-11.37Q366.89-13.73 366.89-14.61L366.89-14.61Q366.89-15.49 366.48-16.03Q366.07-16.56 365.20-16.56L365.20-16.56Q364.34-16.56 363.14-15.74Q361.95-14.92 360.99-13.64Q360.02-12.36 359.82-11.25L359.82-11.25L357.89 0L354.65 0L356.64-11.37Q357.13-13.93 357.13-14.61L357.13-14.61Q357.13-15.49 356.70-16.03Q356.27-16.56 355.35-16.56L355.35-16.56Q354.49-16.56 353.24-15.69Q351.99-14.82 351.04-13.58Q350.08-12.34 349.90-11.25L349.90-11.25L347.97 0L344.73 0L347.71-16.99L345.41-17.48L345.57-18.36L351.00-18.36L350.45-14.57Q351.82-16.50 353.52-17.68Q355.21-18.85 356.72-18.85L356.72-18.85Q358.44-18.85 359.38-17.76Q360.33-16.68 360.33-14.57Z M389.02-14.84L389.02-14.84Q389.02-12.19 385.74-10.31Q382.46-8.44 376.93-8.07L376.93-8.07L376.86-6.64Q376.86-4.16 377.90-2.90Q378.95-1.64 381.00-1.64L381.00-1.64Q382.75-1.64 384.24-2.24Q385.72-2.83 387.01-3.59L387.01-3.59L387.58-2.77Q385.78-1.25 383.78-0.43Q381.78 0.39 379.98 0.39L379.98 0.39Q376.82 0.39 375.11-1.38Q373.40-3.14 373.40-6.45L373.40-6.45Q373.40-9.71 374.78-12.53Q376.15-15.35 378.59-17.10Q381.04-18.85 383.71-18.85L383.71-18.85Q386.11-18.85 387.57-17.74Q389.02-16.64 389.02-14.84ZM377.09-9.30L377.09-9.30Q380.96-9.59 383.28-11.11Q385.61-12.64 385.61-14.84L385.61-14.84Q385.61-15.94 385.01-16.64Q384.41-17.34 383.28-17.34L383.28-17.34Q381.91-17.34 380.63-16.23Q379.34-15.12 378.40-13.24Q377.46-11.37 377.09-9.30Z M404.67-14.61L404.67-14.61Q404.67-15.49 404.20-16.04Q403.73-16.58 402.71-16.58L402.71-16.58Q401.27-16.58 399.56-15.35Q397.85-14.12 396.74-12.30L396.74-12.30L394.59 0L391.35 0L394.34-17.01L392.03-17.50L392.19-18.38L397.62-18.38L397.09-14.63Q398.73-16.74 400.49-17.79Q402.25-18.85 403.95-18.85L403.95-18.85Q405.92-18.85 406.91-17.78Q407.91-16.72 407.91-14.73L407.91-14.73Q407.91-14.45 407.83-13.89Q407.75-13.32 405.70-1.35L405.70-1.35L408.26-0.88L408.11 0L402.23 0L404.22-11.37Q404.67-13.85 404.67-14.61Z M415.08-3.40L415.08-3.40Q415.08-2.52 415.52-2.08Q415.96-1.64 416.64-1.64L416.64-1.64Q418.07-1.64 419.61-2.23L419.61-2.23L420.02-1.31Q417.62 0.39 415.16 0.39L415.16 0.39Q413.61 0.39 412.72-0.55Q411.84-1.48 411.84-3.16L411.84-3.16Q411.84-3.73 411.94-4.50Q412.05-5.27 414.08-16.72L414.08-16.72L411.68-16.72L411.84-17.60L414.43-18.36L417.11-22.52L418.36-22.52L417.64-18.36L421.84-18.36L421.52-16.72L417.32-16.72L415.43-6.00Q415.08-4.20 415.08-3.40Z M439.80-12.03L442.99-12.03Q450.57-12.03 450.57-19.00L450.57-19.00Q450.57-21.80 449.15-23.12Q447.73-24.43 444.88-24.43L444.88-24.43L441.99-24.43L439.80-12.03ZM443.42-10.27L439.49-10.27L437.95-1.56L442.23-1.04L442.03 0L430.82 0L431.02-1.04L434.18-1.56L438.26-24.65L434.98-25.16L435.18-26.19L445.66-26.19Q449.88-26.19 452.17-24.44Q454.45-22.70 454.45-19.26L454.45-19.26Q454.45-14.88 451.59-12.58Q448.73-10.27 443.42-10.27L443.42-10.27Z M469.61-18.85L469.61-18.85Q470.59-18.85 471.15-18.69L471.15-18.69L470.29-13.89L469.45-13.89L468.71-16.37Q467.15-16.37 465.48-15.18Q463.81-13.98 462.42-12.03L462.42-12.03L460.33 0L457.09 0L460.08-16.99L457.77-17.48L457.93-18.36L463.34-18.36L462.73-14.22Q464.20-16.43 466.01-17.64Q467.81-18.85 469.61-18.85Z M474.18-6.64L474.18-6.64Q474.18-4.00 475.21-2.61Q476.23-1.21 478.07-1.21L478.07-1.21Q479.84-1.21 481.46-2.64Q483.07-4.06 484.00-6.53Q484.94-9.00 484.94-11.84L484.94-11.84Q484.94-14.53 483.92-15.93Q482.89-17.32 480.98-17.32L480.98-17.32Q479.20-17.32 477.61-15.90Q476.02-14.47 475.10-12.00Q474.18-9.53 474.18-6.64ZM477.89 0.39L477.89 0.39Q474.65 0.39 472.70-1.69Q470.74-3.77 470.74-7.30L470.74-7.30Q470.74-10.45 472.09-13.13Q473.44-15.80 475.83-17.32Q478.22-18.85 481.21-18.85L481.21-18.85Q484.45-18.85 486.41-16.77Q488.36-14.69 488.36-11.15L488.36-11.15Q488.36-8.01 487.01-5.33Q485.66-2.66 483.27-1.13Q480.88 0.39 477.89 0.39Z M504.08-3.59L504.67-2.77Q503.09-1.31 501.11-0.46Q499.14 0.39 497.36 0.39L497.36 0.39Q494.22 0.39 492.50-1.43Q490.78-3.24 490.78-6.45L490.78-6.45Q490.78-9.84 492.15-12.65Q493.52-15.45 496.04-17.15Q498.57-18.85 501.35-18.85L501.35-18.85Q502.73-18.85 504.30-18.55Q505.86-18.26 506.88-17.83L506.88-17.83L506.00-12.71L504.92-12.71L504.61-16.11Q503.38-17.34 501.33-17.34L501.33-17.34Q499.45-17.34 497.82-15.96Q496.19-14.57 495.21-12.09Q494.24-9.61 494.24-6.64L494.24-6.64Q494.24-1.64 498.26-1.64L498.26-1.64Q501.05-1.64 504.08-3.59L504.08-3.59Z M524.16-14.84L524.16-14.84Q524.16-12.19 520.88-10.31Q517.60-8.44 512.07-8.07L512.07-8.07L511.99-6.64Q511.99-4.16 513.04-2.90Q514.08-1.64 516.13-1.64L516.13-1.64Q517.89-1.64 519.38-2.24Q520.86-2.83 522.15-3.59L522.15-3.59L522.71-2.77Q520.92-1.25 518.92-0.43Q516.91 0.39 515.12 0.39L515.12 0.39Q511.95 0.39 510.24-1.38Q508.54-3.14 508.54-6.45L508.54-6.45Q508.54-9.71 509.91-12.53Q511.29-15.35 513.73-17.10Q516.17-18.85 518.85-18.85L518.85-18.85Q521.25-18.85 522.71-17.74Q524.16-16.64 524.16-14.84ZM512.23-9.30L512.23-9.30Q516.09-9.59 518.42-11.11Q520.74-12.64 520.74-14.84L520.74-14.84Q520.74-15.94 520.15-16.64Q519.55-17.34 518.42-17.34L518.42-17.34Q517.05-17.34 515.76-16.23Q514.47-15.12 513.54-13.24Q512.60-11.37 512.23-9.30Z M538.57-5.39L538.57-5.39Q538.57-2.44 536.70-1.03Q534.82 0.39 531.02 0.39L531.02 0.39Q528.32 0.39 525.55-0.82L525.55-0.82L526.35-5.23L527.23-5.23L527.56-2.56Q528.07-2.01 528.99-1.58Q529.92-1.15 531.09-1.15L531.09-1.15Q535.37-1.15 535.37-4.65L535.37-4.65Q535.37-5.80 534.46-6.70Q533.55-7.60 531.50-8.59L531.50-8.59Q529.53-9.55 528.57-10.71Q527.62-11.88 527.62-13.44L527.62-13.44Q527.62-16.02 529.36-17.43Q531.09-18.85 534.18-18.85L534.18-18.85Q536.39-18.85 539.41-18.16L539.41-18.16L538.69-14.08L537.77-14.08L537.50-16.19Q536.27-17.29 534.26-17.29L534.26-17.29Q532.66-17.29 531.70-16.55Q530.74-15.82 530.74-14.28L530.74-14.28Q530.74-13.22 531.56-12.42Q532.38-11.62 534.67-10.45L534.67-10.45Q536.70-9.39 537.64-8.18Q538.57-6.97 538.57-5.39Z M554.14-5.39L554.14-5.39Q554.14-2.44 552.27-1.03Q550.39 0.39 546.58 0.39L546.58 0.39Q543.89 0.39 541.11-0.82L541.11-0.82L541.91-5.23L542.79-5.23L543.13-2.56Q543.63-2.01 544.56-1.58Q545.49-1.15 546.66-1.15L546.66-1.15Q550.94-1.15 550.94-4.65L550.94-4.65Q550.94-5.80 550.03-6.70Q549.12-7.60 547.07-8.59L547.07-8.59Q545.10-9.55 544.14-10.71Q543.18-11.88 543.18-13.44L543.18-13.44Q543.18-16.02 544.92-17.43Q546.66-18.85 549.75-18.85L549.75-18.85Q551.95-18.85 554.98-18.16L554.98-18.16L554.26-14.08L553.34-14.08L553.07-16.19Q551.84-17.29 549.82-17.29L549.82-17.29Q548.22-17.29 547.27-16.55Q546.31-15.82 546.31-14.28L546.31-14.28Q546.31-13.22 547.13-12.42Q547.95-11.62 550.23-10.45L550.23-10.45Q552.27-9.39 553.20-8.18Q554.14-6.97 554.14-5.39Z M573.05-14.84L573.05-14.84Q573.05-12.19 569.77-10.31Q566.48-8.44 560.96-8.07L560.96-8.07L560.88-6.64Q560.88-4.16 561.92-2.90Q562.97-1.64 565.02-1.64L565.02-1.64Q566.78-1.64 568.26-2.24Q569.75-2.83 571.04-3.59L571.04-3.59L571.60-2.77Q569.80-1.25 567.80-0.43Q565.80 0.39 564.00 0.39L564.00 0.39Q560.84 0.39 559.13-1.38Q557.42-3.14 557.42-6.45L557.42-6.45Q557.42-9.71 558.80-12.53Q560.18-15.35 562.62-17.10Q565.06-18.85 567.73-18.85L567.73-18.85Q570.14-18.85 571.59-17.74Q573.05-16.64 573.05-14.84ZM561.11-9.30L561.11-9.30Q564.98-9.59 567.30-11.11Q569.63-12.64 569.63-14.84L569.63-14.84Q569.63-15.94 569.03-16.64Q568.44-17.34 567.30-17.34L567.30-17.34Q565.94-17.34 564.65-16.23Q563.36-15.12 562.42-13.24Q561.48-11.37 561.11-9.30Z M587.46-5.39L587.46-5.39Q587.46-2.44 585.59-1.03Q583.71 0.39 579.90 0.39L579.90 0.39Q577.21 0.39 574.43-0.82L574.43-0.82L575.23-5.23L576.11-5.23L576.45-2.56Q576.95-2.01 577.88-1.58Q578.81-1.15 579.98-1.15L579.98-1.15Q584.26-1.15 584.26-4.65L584.26-4.65Q584.26-5.80 583.35-6.70Q582.44-7.60 580.39-8.59L580.39-8.59Q578.42-9.55 577.46-10.71Q576.50-11.88 576.50-13.44L576.50-13.44Q576.50-16.02 578.24-17.43Q579.98-18.85 583.07-18.85L583.07-18.85Q585.27-18.85 588.30-18.16L588.30-18.16L587.58-14.08L586.66-14.08L586.39-16.19Q585.16-17.29 583.14-17.29L583.14-17.29Q581.54-17.29 580.59-16.55Q579.63-15.82 579.63-14.28L579.63-14.28Q579.63-13.22 580.45-12.42Q581.27-11.62 583.55-10.45L583.55-10.45Q585.59-9.39 586.52-8.18Q587.46-6.97 587.46-5.39Z M602.66-1.56L606.74-24.65L603.46-25.16L603.65-26.19L623.30-26.19L622.19-19.92L620.90-19.92L621.02-24.16Q618.89-24.43 614.75-24.43L614.75-24.43L610.47-24.43L608.65-14.20L615.72-14.20L616.89-17.32L618.14-17.32L616.72-9.28L615.47-9.28L615.43-12.44L608.36-12.44L606.46-1.76L611.62-1.76Q616.62-1.76 618.28-2.07L618.28-2.07L620.25-6.91L621.54-6.91L619.94 0L599.04 0L599.24-1.04L602.66-1.56Z M632.03-16.72L627.64 8.52L624.39 8.52L628.79-16.72L625.63-16.72L625.78-17.68L629.10-18.44L629.34-19.73Q630.12-24.08 631.96-26.12Q633.81-28.16 636.95-28.16L636.95-28.16Q638.46-28.16 639.67-27.79L639.67-27.79L638.98-23.96L638.03-23.96L637.66-26.19Q637.09-26.60 636.02-26.60L636.02-26.60Q634.82-26.60 634.14-25.58Q633.46-24.55 632.87-21.41L632.87-21.41L632.30-18.36L636.39-18.36L636.11-16.72L632.03-16.72Z M643.14-16.72L638.75 8.52L635.51 8.52L639.90-16.72L636.74-16.72L636.89-17.68L640.21-18.44L640.45-19.73Q641.23-24.08 643.08-26.12Q644.92-28.16 648.07-28.16L648.07-28.16Q649.57-28.16 650.78-27.79L650.78-27.79L650.10-23.96L649.14-23.96L648.77-26.19Q648.20-26.60 647.13-26.60L647.13-26.60Q645.94-26.60 645.25-25.58Q644.57-24.55 643.98-21.41L643.98-21.41L643.42-18.36L647.50-18.36L647.23-16.72L643.14-16.72Z M650.80-6.64L650.80-6.64Q650.80-4.00 651.83-2.61Q652.85-1.21 654.69-1.21L654.69-1.21Q656.46-1.21 658.08-2.64Q659.69-4.06 660.63-6.53Q661.56-9.00 661.56-11.84L661.56-11.84Q661.56-14.53 660.54-15.93Q659.51-17.32 657.60-17.32L657.60-17.32Q655.82-17.32 654.23-15.90Q652.64-14.47 651.72-12.00Q650.80-9.53 650.80-6.64ZM654.51 0.39L654.51 0.39Q651.27 0.39 649.32-1.69Q647.36-3.77 647.36-7.30L647.36-7.30Q647.36-10.45 648.71-13.13Q650.06-15.80 652.45-17.32Q654.84-18.85 657.83-18.85L657.83-18.85Q661.07-18.85 663.03-16.77Q664.98-14.69 664.98-11.15L664.98-11.15Q664.98-8.01 663.63-5.33Q662.29-2.66 659.89-1.13Q657.50 0.39 654.51 0.39Z M680.31-18.85L680.31-18.85Q681.29-18.85 681.86-18.69L681.86-18.69L681.00-13.89L680.16-13.89L679.41-16.37Q677.85-16.37 676.18-15.18Q674.51-13.98 673.13-12.03L673.13-12.03L671.04 0L667.79 0L670.78-16.99L668.48-17.48L668.63-18.36L674.04-18.36L673.44-14.22Q674.90-16.43 676.71-17.64Q678.52-18.85 680.31-18.85Z M686.89-3.40L686.89-3.40Q686.89-2.52 687.33-2.08Q687.77-1.64 688.46-1.64L688.46-1.64Q689.88-1.64 691.43-2.23L691.43-2.23L691.84-1.31Q689.43 0.39 686.97 0.39L686.97 0.39Q685.43 0.39 684.54-0.55Q683.65-1.48 683.65-3.16L683.65-3.16Q683.65-3.73 683.76-4.50Q683.87-5.27 685.90-16.72L685.90-16.72L683.50-16.72L683.65-17.60L686.25-18.36L688.93-22.52L690.18-22.52L689.45-18.36L693.65-18.36L693.34-16.72L689.14-16.72L687.25-6.00Q686.89-4.20 686.89-3.40Z M703.09-27.75L698.46-1.37L701.52-0.88L701.37 0L694.98 0L699.61-26.41L697.09-26.88L697.25-27.75L703.09-27.75Z M720.82-14.84L720.82-14.84Q720.82-12.19 717.54-10.31Q714.26-8.44 708.73-8.07L708.73-8.07L708.65-6.64Q708.65-4.16 709.70-2.90Q710.74-1.64 712.79-1.64L712.79-1.64Q714.55-1.64 716.04-2.24Q717.52-2.83 718.81-3.59L718.81-3.59L719.38-2.77Q717.58-1.25 715.58-0.43Q713.57 0.39 711.78 0.39L711.78 0.39Q708.61 0.39 706.90-1.38Q705.20-3.14 705.20-6.45L705.20-6.45Q705.20-9.71 706.57-12.53Q707.95-15.35 710.39-17.10Q712.83-18.85 715.51-18.85L715.51-18.85Q717.91-18.85 719.37-17.74Q720.82-16.64 720.82-14.84ZM708.89-9.30L708.89-9.30Q712.75-9.59 715.08-11.11Q717.40-12.64 717.40-14.84L717.40-14.84Q717.40-15.94 716.81-16.64Q716.21-17.34 715.08-17.34L715.08-17.34Q713.71-17.34 712.42-16.23Q711.13-15.12 710.20-13.24Q709.26-11.37 708.89-9.30Z M735.23-5.39L735.23-5.39Q735.23-2.44 733.36-1.03Q731.48 0.39 727.68 0.39L727.68 0.39Q724.98 0.39 722.21-0.82L722.21-0.82L723.01-5.23L723.89-5.23L724.22-2.56Q724.73-2.01 725.65-1.58Q726.58-1.15 727.75-1.15L727.75-1.15Q732.03-1.15 732.03-4.65L732.03-4.65Q732.03-5.80 731.12-6.70Q730.21-7.60 728.16-8.59L728.16-8.59Q726.19-9.55 725.23-10.71Q724.28-11.88 724.28-13.44L724.28-13.44Q724.28-16.02 726.02-17.43Q727.75-18.85 730.84-18.85L730.84-18.85Q733.05-18.85 736.07-18.16L736.07-18.16L735.35-14.08L734.43-14.08L734.16-16.19Q732.93-17.29 730.92-17.29L730.92-17.29Q729.32-17.29 728.36-16.55Q727.40-15.82 727.40-14.28L727.40-14.28Q727.40-13.22 728.22-12.42Q729.04-11.62 731.33-10.45L731.33-10.45Q733.36-9.39 734.30-8.18Q735.23-6.97 735.23-5.39Z M750.80-5.39L750.80-5.39Q750.80-2.44 748.93-1.03Q747.05 0.39 743.24 0.39L743.24 0.39Q740.55 0.39 737.77-0.82L737.77-0.82L738.57-5.23L739.45-5.23L739.79-2.56Q740.29-2.01 741.22-1.58Q742.15-1.15 743.32-1.15L743.32-1.15Q747.60-1.15 747.60-4.65L747.60-4.65Q747.60-5.80 746.69-6.70Q745.78-7.60 743.73-8.59L743.73-8.59Q741.76-9.55 740.80-10.71Q739.84-11.88 739.84-13.44L739.84-13.44Q739.84-16.02 741.58-17.43Q743.32-18.85 746.41-18.85L746.41-18.85Q748.61-18.85 751.64-18.16L751.64-18.16L750.92-14.08L750-14.08L749.73-16.19Q748.50-17.29 746.48-17.29L746.48-17.29Q744.88-17.29 743.93-16.55Q742.97-15.82 742.97-14.28L742.97-14.28Q742.97-13.22 743.79-12.42Q744.61-11.62 746.89-10.45L746.89-10.45Q748.93-9.39 749.86-8.18Q750.80-6.97 750.80-5.39Z M763.09-27.75L758.46-1.37L761.52-0.88L761.37 0L754.98 0L759.61-26.41L757.09-26.88L757.25-27.75L763.09-27.75Z M764.82-17.48L764.98-18.36L769.98-18.36L772.81-4.06L777.40-11.99Q778.65-14.18 778.65-15.76L778.65-15.76Q778.65-16.48 778.24-16.91Q777.83-17.34 777.36-17.48L777.36-17.48L777.52-18.36L781.23-18.36Q781.74-17.91 781.74-17.13L781.74-17.13Q781.74-15.59 780.12-12.83L780.12-12.83L772.38 0.20Q770.16 3.98 768.86 5.57Q767.56 7.15 766.29 7.89Q765.02 8.63 763.54 8.63L763.54 8.63Q761.95 8.63 760.63 8.28L760.63 8.28L761.35 4.32L762.23 4.32L762.54 6.19Q763.03 6.64 764.14 6.64L764.14 6.64Q766.78 6.64 769.71 1.37L769.71 1.37L770.59-0.23L767.01-16.99L764.82-17.48Z"/></g>
</svg>
</g><g opacity="1" transform="rotate(0 297.2414 402.6526)">
<svg width="375.7648" height="80" x="297.2414" y="402.6526" version="1.1" preserveAspectRatio="none" viewBox="-0.0977 -26.4062 126.875 27.011699999999998">
  <g transform="matrix(1 0 0 1 0 0)" class="companyName"><path id="id-D6z1nYkh5" d="M0.29-2.23L16.43-24.12L12.68-24.12Q10.74-24.12 9.16-23.99Q7.58-23.87 6.95-23.73L6.95-23.73L5.63-19.61L3.89-19.61L5.04-26.19L23.42-26.19L23.05-24.12L6.97-2.03L10.63-2.03Q12.75-2.03 15.07-2.26Q17.38-2.48 18.24-2.68L18.24-2.68L20.27-7.68L22.03-7.68L20.16 0L-0.10 0L0.29-2.23Z M37.42-24.24L33.50-1.95L36.76-1.45L36.50 0L24.04 0L24.30-1.45L27.73-1.95L31.66-24.24L28.40-24.77L28.65-26.19L41.13-26.19L40.88-24.77L37.42-24.24Z M75.27-24.26L63.71 0.61L61.88 0.61L58.79-15.96L50.94 0.61L48.96 0.61L45.29-24.26L42.75-24.77L43.01-26.19L54.02-26.19L53.77-24.77L50.61-24.26L52.68-8.36L60.43-24.55L62.38-24.55L65.35-8.26L72.42-24.26L69.22-24.77L69.47-26.19L77.91-26.19L77.66-24.77L75.27-24.26Z M75.61-1.95L78.50-1.43L78.22 0L70.53 0L70.80-1.43L72.81-1.95L85.86-26.41L90.55-26.41L95.51-1.95L97.64-1.43L97.36 0L86.64 0L86.91-1.43L89.61-1.95L88.42-8.73L79.20-8.73L75.61-1.95ZM88.03-10.88L86.05-21.84L80.29-10.88L88.03-10.88Z M111.37-10.16L104.30-1.95L107.25-1.43L107.01 0L98.26 0L98.50-1.43L101.48-1.95L110.49-12.40L105.84-24.26L102.99-24.77L103.24-26.19L115.21-26.19L114.96-24.77L111.74-24.26L114.53-17.09L120.70-24.26L117.75-24.77L118.01-26.19L126.78-26.19L126.52-24.77L123.54-24.26L115.41-14.84L120.47-1.95L123.34-1.43L123.11 0L111.13 0L111.37-1.43L114.59-1.95L111.37-10.16Z"/></g>
</svg>
</g></svg></svg>