<svg version="1.1" preserveAspectRatio="none" xmlns="http://www.w3.org/2000/svg" width="500" height="500" viewBox="0 0 500 500"><rect width="100%" height="100%" fill="#2A3C47" fill-opacity="1"/><svg viewBox="-120.2239 382.9963 798.2495 119.4" width="333" height="49.809238840738395" x="83.5px" y="225.0954px" xmlns="http://www.w3.org/2000/svg" xmlns:xlink="http://www.w3.org/1999/xlink" preserveAspectRatio="none"><defs></defs><style>.companyName {fill:#EBE7D9;fill-opacity:1;}.icon3 {fill:#F55139;fill-opacity:1;}.icon3-str {stroke:#F55139;stroke-opacity:1;}</style><g opacity="1" transform="rotate(0 -120.2239 472.9963)">
<svg width="798.2495" height="29.4" x="-120.2239" y="472.9963" version="1.1" preserveAspectRatio="none" viewBox="1.64 -30.28 1039.36 38.28">
  <g transform="matrix(1 0 0 1 0 0)" class="icon3"><path id="id-6izo4zJp47" d="M12.36 0.32Q9.20 0.32 6.26-0.66Q3.32-1.64 1.64-3.20L1.64-3.20L3.12-6.32Q4.72-4.88 7.22-3.98Q9.72-3.08 12.36-3.08L12.36-3.08Q15.84-3.08 17.56-4.26Q19.28-5.44 19.28-7.40L19.28-7.40Q19.28-8.84 18.34-9.74Q17.40-10.64 16.02-11.12Q14.64-11.60 12.12-12.20L12.12-12.20Q8.96-12.96 7.02-13.72Q5.08-14.48 3.70-16.06Q2.32-17.64 2.32-20.32L2.32-20.32Q2.32-22.56 3.50-24.36Q4.68-26.16 7.08-27.24Q9.48-28.32 13.04-28.32L13.04-28.32Q15.52-28.32 17.92-27.68Q20.32-27.04 22.04-25.84L22.04-25.84L20.72-22.64Q18.96-23.76 16.96-24.34Q14.96-24.92 13.04-24.92L13.04-24.92Q9.64-24.92 7.94-23.68Q6.24-22.44 6.24-20.48L6.24-20.48Q6.24-19.04 7.20-18.14Q8.16-17.24 9.58-16.74Q11-16.24 13.44-15.68L13.44-15.68Q16.60-14.92 18.52-14.16Q20.44-13.40 21.82-11.84Q23.20-10.28 23.20-7.64L23.20-7.64Q23.20-5.44 22-3.62Q20.80-1.80 18.36-0.74Q15.92 0.32 12.36 0.32L12.36 0.32Z M40.40-4L41.60-1.24Q40.76-0.52 39.52-0.14Q38.28 0.24 36.96 0.24L36.96 0.24Q33.76 0.24 32-1.48Q30.24-3.20 30.24-6.40L30.24-6.40L30.24-18.04L26.64-18.04L26.64-21.20L30.24-21.20L30.24-25.84L34.08-25.84L34.08-21.20L40.16-21.20L40.16-18.04L34.08-18.04L34.08-6.56Q34.08-4.84 34.94-3.92Q35.80-3 37.40-3L37.40-3Q39.16-3 40.40-4L40.40-4Z M51.12-17.64Q52.12-19.48 54.08-20.44Q56.04-21.40 58.84-21.40L58.84-21.40L58.84-17.68Q58.52-17.72 57.96-17.72L57.96-17.72Q54.84-17.72 53.06-15.86Q51.28-14 51.28-10.56L51.28-10.56L51.28 0L47.44 0L47.44-21.20L51.12-21.20L51.12-17.64Z M83.72-10.48Q83.72-10.04 83.64-9.32L83.64-9.32L66.44-9.32Q66.80-6.52 68.90-4.82Q71-3.12 74.12-3.12L74.12-3.12Q77.92-3.12 80.24-5.68L80.24-5.68L82.36-3.20Q80.92-1.52 78.78-0.64Q76.64 0.24 74 0.24L74 0.24Q70.64 0.24 68.04-1.14Q65.44-2.52 64.02-5Q62.60-7.48 62.60-10.60L62.60-10.60Q62.60-13.68 63.98-16.16Q65.36-18.64 67.78-20.02Q70.20-21.40 73.24-21.40L73.24-21.40Q76.28-21.40 78.66-20.02Q81.04-18.64 82.38-16.16Q83.72-13.68 83.72-10.48L83.72-10.48ZM73.24-18.16Q70.48-18.16 68.62-16.48Q66.76-14.80 66.44-12.08L66.44-12.08L80.04-12.08Q79.72-14.76 77.86-16.46Q76-18.16 73.24-18.16L73.24-18.16Z M97.36-21.40Q101.76-21.40 104.10-19.24Q106.44-17.08 106.44-12.80L106.44-12.80L106.44 0L102.80 0L102.80-2.80Q101.84-1.32 100.06-0.54Q98.28 0.24 95.84 0.24L95.84 0.24Q92.28 0.24 90.14-1.48Q88.00-3.20 88.00-6L88.00-6Q88.00-8.80 90.04-10.50Q92.08-12.20 96.52-12.20L96.52-12.20L102.60-12.20L102.60-12.96Q102.60-15.44 101.16-16.76Q99.72-18.08 96.92-18.08L96.92-18.08Q95.04-18.08 93.24-17.46Q91.44-16.84 90.20-15.80L90.20-15.80L88.60-18.68Q90.24-20 92.52-20.70Q94.80-21.40 97.36-21.40L97.36-21.40ZM96.48-2.72Q98.68-2.72 100.28-3.70Q101.88-4.68 102.60-6.48L102.60-6.48L102.60-9.44L96.68-9.44Q91.80-9.44 91.80-6.16L91.80-6.16Q91.80-4.56 93.04-3.64Q94.28-2.72 96.48-2.72L96.48-2.72Z M141.28-21.40Q145.28-21.40 147.62-19.08Q149.96-16.76 149.96-12.20L149.96-12.20L149.96 0L146.12 0L146.12-11.76Q146.12-14.84 144.70-16.40Q143.28-17.96 140.64-17.96L140.64-17.96Q137.72-17.96 136.00-16.14Q134.28-14.32 134.28-10.92L134.28-10.92L134.28 0L130.44 0L130.44-11.76Q130.44-14.84 129.02-16.40Q127.60-17.96 124.96-17.96L124.96-17.96Q122.04-17.96 120.32-16.14Q118.60-14.32 118.60-10.92L118.60-10.92L118.60 0L114.76 0L114.76-21.20L118.44-21.20L118.44-18.04Q119.60-19.68 121.48-20.54Q123.36-21.40 125.76-21.40L125.76-21.40Q128.24-21.40 130.16-20.40Q132.08-19.40 133.12-17.48L133.12-17.48Q134.32-19.32 136.46-20.36Q138.60-21.40 141.28-21.40L141.28-21.40Z M158.24 0L158.24-29.68L162.08-29.68L162.08 0L158.24 0Z M170.60 0L170.60-21.20L174.44-21.20L174.44 0L170.60 0ZM172.52-25.28Q171.40-25.28 170.66-26Q169.92-26.72 169.92-27.76L169.92-27.76Q169.92-28.80 170.66-29.54Q171.40-30.28 172.52-30.28L172.52-30.28Q173.64-30.28 174.38-29.58Q175.12-28.88 175.12-27.84L175.12-27.84Q175.12-26.76 174.38-26.02Q173.64-25.28 172.52-25.28L172.52-25.28Z M194.28-21.40Q198.32-21.40 200.70-19.06Q203.08-16.72 203.08-12.20L203.08-12.20L203.08 0L199.24 0L199.24-11.76Q199.24-14.84 197.76-16.40Q196.28-17.96 193.52-17.96L193.52-17.96Q190.40-17.96 188.60-16.14Q186.80-14.32 186.80-10.92L186.80-10.92L186.80 0L182.96 0L182.96-21.20L186.64-21.20L186.64-18Q187.80-19.64 189.78-20.52Q191.76-21.40 194.28-21.40L194.28-21.40Z M211.40 0L211.40-21.20L215.24-21.20L215.24 0L211.40 0ZM213.32-25.28Q212.20-25.28 211.46-26Q210.72-26.72 210.72-27.76L210.72-27.76Q210.72-28.80 211.46-29.54Q212.20-30.28 213.32-30.28L213.32-30.28Q214.44-30.28 215.18-29.58Q215.92-28.88 215.92-27.84L215.92-27.84Q215.92-26.76 215.18-26.02Q214.44-25.28 213.32-25.28L213.32-25.28Z M235.08-21.40Q239.12-21.40 241.50-19.06Q243.88-16.72 243.88-12.20L243.88-12.20L243.88 0L240.04 0L240.04-11.76Q240.04-14.84 238.56-16.40Q237.08-17.96 234.32-17.96L234.32-17.96Q231.20-17.96 229.40-16.14Q227.60-14.32 227.60-10.92L227.60-10.92L227.60 0L223.76 0L223.76-21.20L227.44-21.20L227.44-18Q228.60-19.64 230.58-20.52Q232.56-21.40 235.08-21.40L235.08-21.40Z M268.96-21.20L272.60-21.20L272.60-2.88Q272.60 2.68 269.84 5.34Q267.08 8 261.60 8L261.60 8Q258.60 8 255.88 7.18Q253.16 6.36 251.48 4.84L251.48 4.84L253.32 1.88Q254.80 3.16 256.98 3.90Q259.16 4.64 261.48 4.64L261.48 4.64Q265.20 4.64 266.98 2.88Q268.76 1.12 268.76-2.48L268.76-2.48L268.76-4.16Q267.40-2.52 265.42-1.70Q263.44-0.88 261.12-0.88L261.12-0.88Q258.08-0.88 255.62-2.18Q253.16-3.48 251.76-5.82Q250.36-8.16 250.36-11.16L250.36-11.16Q250.36-14.16 251.76-16.50Q253.16-18.84 255.62-20.12Q258.08-21.40 261.12-21.40L261.12-21.40Q263.52-21.40 265.58-20.52Q267.64-19.64 268.96-17.92L268.96-17.92L268.96-21.20ZM261.56-4.24Q263.64-4.24 265.30-5.12Q266.96-6 267.90-7.58Q268.84-9.16 268.84-11.16L268.84-11.16Q268.84-14.24 266.80-16.14Q264.76-18.04 261.56-18.04L261.56-18.04Q258.32-18.04 256.28-16.14Q254.24-14.24 254.24-11.16L254.24-11.16Q254.24-9.16 255.18-7.58Q256.12-6 257.78-5.12Q259.44-4.24 261.56-4.24L261.56-4.24Z M304.32-21.40Q307.40-21.40 309.84-20.04Q312.28-18.68 313.66-16.24Q315.04-13.80 315.04-10.60L315.04-10.60Q315.04-7.40 313.66-4.94Q312.28-2.48 309.84-1.12Q307.40 0.24 304.32 0.24L304.32 0.24Q302.04 0.24 300.14-0.64Q298.24-1.52 296.92-3.20L296.92-3.20L296.92 7.76L293.08 7.76L293.08-21.20L296.76-21.20L296.76-17.84Q298.04-19.60 300.00-20.50Q301.96-21.40 304.32-21.40L304.32-21.40ZM304.00-3.12Q306.04-3.12 307.66-4.06Q309.28-5 310.22-6.70Q311.16-8.40 311.16-10.60L311.16-10.60Q311.16-12.80 310.22-14.50Q309.28-16.20 307.66-17.12Q306.04-18.04 304.00-18.04L304.00-18.04Q302.00-18.04 300.38-17.10Q298.76-16.16 297.82-14.48Q296.88-12.80 296.88-10.60L296.88-10.60Q296.88-8.40 297.80-6.70Q298.72-5 300.36-4.06Q302.00-3.12 304.00-3.12L304.00-3.12Z M325.24-17.64Q326.24-19.48 328.20-20.44Q330.16-21.40 332.96-21.40L332.96-21.40L332.96-17.68Q332.64-17.72 332.08-17.72L332.08-17.72Q328.96-17.72 327.18-15.86Q325.40-14 325.40-10.56L325.40-10.56L325.40 0L321.56 0L321.56-21.20L325.24-21.20L325.24-17.64Z M347.76 0.24Q344.60 0.24 342.08-1.16Q339.56-2.56 338.14-5.02Q336.72-7.48 336.72-10.60L336.72-10.60Q336.72-13.72 338.14-16.18Q339.56-18.64 342.08-20.02Q344.60-21.40 347.76-21.40L347.76-21.40Q350.92-21.40 353.42-20.02Q355.92-18.64 357.34-16.18Q358.76-13.72 358.76-10.60L358.76-10.60Q358.76-7.48 357.34-5.02Q355.92-2.56 353.42-1.16Q350.92 0.24 347.76 0.24L347.76 0.24ZM347.76-3.12Q349.80-3.12 351.42-4.06Q353.04-5 353.96-6.70Q354.88-8.40 354.88-10.60L354.88-10.60Q354.88-12.80 353.96-14.50Q353.04-16.20 351.42-17.12Q349.80-18.04 347.76-18.04L347.76-18.04Q345.72-18.04 344.10-17.12Q342.48-16.20 341.54-14.50Q340.60-12.80 340.60-10.60L340.60-10.60Q340.60-8.40 341.54-6.70Q342.48-5 344.10-4.06Q345.72-3.12 347.76-3.12L347.76-3.12Z M374.52 0.24Q371.28 0.24 368.74-1.16Q366.20-2.56 364.76-5.02Q363.32-7.48 363.32-10.60L363.32-10.60Q363.32-13.72 364.76-16.18Q366.20-18.64 368.74-20.02Q371.28-21.40 374.52-21.40L374.52-21.40Q377.40-21.40 379.66-20.24Q381.92-19.08 383.16-16.88L383.16-16.88L380.24-15Q379.24-16.52 377.76-17.28Q376.28-18.04 374.48-18.04L374.48-18.04Q372.40-18.04 370.74-17.12Q369.08-16.20 368.14-14.50Q367.20-12.80 367.20-10.60L367.20-10.60Q367.20-8.36 368.14-6.66Q369.08-4.96 370.74-4.04Q372.40-3.12 374.48-3.12L374.48-3.12Q376.28-3.12 377.76-3.88Q379.24-4.64 380.24-6.16L380.24-6.16L383.16-4.32Q381.92-2.12 379.66-0.94Q377.40 0.24 374.52 0.24L374.52 0.24Z M405.24-21.20L409.08-21.20L409.08 0L405.44 0L405.44-3.20Q404.28-1.56 402.38-0.66Q400.48 0.24 398.24 0.24L398.24 0.24Q394.00 0.24 391.56-2.10Q389.12-4.44 389.12-9L389.12-9L389.12-21.20L392.96-21.20L392.96-9.44Q392.96-6.36 394.44-4.78Q395.92-3.20 398.68-3.20L398.68-3.20Q401.72-3.20 403.48-5.04Q405.24-6.88 405.24-10.24L405.24-10.24L405.24-21.20Z M421.28-17.64Q422.28-19.48 424.24-20.44Q426.20-21.40 429.00-21.40L429.00-21.40L429.00-17.68Q428.68-17.72 428.12-17.72L428.12-17.72Q425.00-17.72 423.22-15.86Q421.44-14 421.44-10.56L421.44-10.56L421.44 0L417.60 0L417.60-21.20L421.28-21.20L421.28-17.64Z M453.88-10.48Q453.88-10.04 453.80-9.32L453.80-9.32L436.60-9.32Q436.96-6.52 439.06-4.82Q441.16-3.12 444.28-3.12L444.28-3.12Q448.08-3.12 450.40-5.68L450.40-5.68L452.52-3.20Q451.08-1.52 448.94-0.64Q446.80 0.24 444.16 0.24L444.16 0.24Q440.80 0.24 438.20-1.14Q435.60-2.52 434.18-5Q432.76-7.48 432.76-10.60L432.76-10.60Q432.76-13.68 434.14-16.16Q435.52-18.64 437.94-20.02Q440.36-21.40 443.40-21.40L443.40-21.40Q446.44-21.40 448.82-20.02Q451.20-18.64 452.54-16.16Q453.88-13.68 453.88-10.48L453.88-10.48ZM443.40-18.16Q440.64-18.16 438.78-16.48Q436.92-14.80 436.60-12.08L436.60-12.08L450.20-12.08Q449.88-14.76 448.02-16.46Q446.16-18.16 443.40-18.16L443.40-18.16Z M486.92-21.40Q490.92-21.40 493.26-19.08Q495.60-16.76 495.60-12.20L495.60-12.20L495.60 0L491.76 0L491.76-11.76Q491.76-14.84 490.34-16.40Q488.92-17.96 486.28-17.96L486.28-17.96Q483.36-17.96 481.64-16.14Q479.92-14.32 479.92-10.92L479.92-10.92L479.92 0L476.08 0L476.08-11.76Q476.08-14.84 474.66-16.40Q473.24-17.96 470.60-17.96L470.60-17.96Q467.68-17.96 465.96-16.14Q464.24-14.32 464.24-10.92L464.24-10.92L464.24 0L460.40 0L460.40-21.20L464.08-21.20L464.08-18.04Q465.24-19.68 467.12-20.54Q469.00-21.40 471.40-21.40L471.40-21.40Q473.88-21.40 475.80-20.40Q477.72-19.40 478.76-17.48L478.76-17.48Q479.96-19.32 482.10-20.36Q484.24-21.40 486.92-21.40L486.92-21.40Z M523.16-10.48Q523.16-10.04 523.08-9.32L523.08-9.32L505.88-9.32Q506.24-6.52 508.34-4.82Q510.44-3.12 513.56-3.12L513.56-3.12Q517.36-3.12 519.68-5.68L519.68-5.68L521.80-3.20Q520.36-1.52 518.22-0.64Q516.08 0.24 513.44 0.24L513.44 0.24Q510.08 0.24 507.48-1.14Q504.88-2.52 503.46-5Q502.04-7.48 502.04-10.60L502.04-10.60Q502.04-13.68 503.42-16.16Q504.80-18.64 507.22-20.02Q509.64-21.40 512.68-21.40L512.68-21.40Q515.72-21.40 518.10-20.02Q520.48-18.64 521.82-16.16Q523.16-13.68 523.16-10.48L523.16-10.48ZM512.68-18.16Q509.92-18.16 508.06-16.48Q506.20-14.80 505.88-12.08L505.88-12.08L519.48-12.08Q519.16-14.76 517.30-16.46Q515.44-18.16 512.68-18.16L512.68-18.16Z M541.00-21.40Q545.04-21.40 547.42-19.06Q549.80-16.72 549.80-12.20L549.80-12.20L549.80 0L545.96 0L545.96-11.76Q545.96-14.84 544.48-16.40Q543.00-17.96 540.24-17.96L540.24-17.96Q537.12-17.96 535.32-16.14Q533.52-14.32 533.52-10.92L533.52-10.92L533.52 0L529.68 0L529.68-21.20L533.36-21.20L533.36-18Q534.52-19.64 536.50-20.52Q538.48-21.40 541.00-21.40L541.00-21.40Z M568.84-4L570.04-1.24Q569.20-0.52 567.96-0.14Q566.72 0.24 565.40 0.24L565.40 0.24Q562.20 0.24 560.44-1.48Q558.68-3.20 558.68-6.40L558.68-6.40L558.68-18.04L555.08-18.04L555.08-21.20L558.68-21.20L558.68-25.84L562.52-25.84L562.52-21.20L568.60-21.20L568.60-18.04L562.52-18.04L562.52-6.56Q562.52-4.84 563.38-3.92Q564.24-3 565.84-3L565.84-3Q567.60-3 568.84-4L568.84-4Z M599.08-21.40Q602.16-21.40 604.60-20.04Q607.04-18.68 608.42-16.24Q609.80-13.80 609.80-10.60L609.80-10.60Q609.80-7.40 608.42-4.94Q607.04-2.48 604.60-1.12Q602.16 0.24 599.08 0.24L599.08 0.24Q596.80 0.24 594.90-0.64Q593.00-1.52 591.68-3.20L591.68-3.20L591.68 7.76L587.84 7.76L587.84-21.20L591.52-21.20L591.52-17.84Q592.80-19.60 594.76-20.50Q596.72-21.40 599.08-21.40L599.08-21.40ZM598.76-3.12Q600.80-3.12 602.42-4.06Q604.04-5 604.98-6.70Q605.92-8.40 605.92-10.60L605.92-10.60Q605.92-12.80 604.98-14.50Q604.04-16.20 602.42-17.12Q600.80-18.04 598.76-18.04L598.76-18.04Q596.76-18.04 595.14-17.10Q593.52-16.16 592.58-14.48Q591.64-12.80 591.64-10.60L591.64-10.60Q591.64-8.40 592.56-6.70Q593.48-5 595.12-4.06Q596.76-3.12 598.76-3.12L598.76-3.12Z M620.00-17.64Q621.00-19.48 622.96-20.44Q624.92-21.40 627.72-21.40L627.72-21.40L627.72-17.68Q627.40-17.72 626.84-17.72L626.84-17.72Q623.72-17.72 621.94-15.86Q620.16-14 620.16-10.56L620.16-10.56L620.16 0L616.32 0L616.32-21.20L620.00-21.20L620.00-17.64Z M642.52 0.24Q639.36 0.24 636.84-1.16Q634.32-2.56 632.90-5.02Q631.48-7.48 631.48-10.60L631.48-10.60Q631.48-13.72 632.90-16.18Q634.32-18.64 636.84-20.02Q639.36-21.40 642.52-21.40L642.52-21.40Q645.68-21.40 648.18-20.02Q650.68-18.64 652.10-16.18Q653.52-13.72 653.52-10.60L653.52-10.60Q653.52-7.48 652.10-5.02Q650.68-2.56 648.18-1.16Q645.68 0.24 642.52 0.24L642.52 0.24ZM642.52-3.12Q644.56-3.12 646.18-4.06Q647.80-5 648.72-6.70Q649.64-8.40 649.64-10.60L649.64-10.60Q649.64-12.80 648.72-14.50Q647.80-16.20 646.18-17.12Q644.56-18.04 642.52-18.04L642.52-18.04Q640.48-18.04 638.86-17.12Q637.24-16.20 636.30-14.50Q635.36-12.80 635.36-10.60L635.36-10.60Q635.36-8.40 636.30-6.70Q637.24-5 638.86-4.06Q640.48-3.12 642.52-3.12L642.52-3.12Z M669.28 0.24Q666.04 0.24 663.50-1.16Q660.96-2.56 659.52-5.02Q658.08-7.48 658.08-10.60L658.08-10.60Q658.08-13.72 659.52-16.18Q660.96-18.64 663.50-20.02Q666.04-21.40 669.28-21.40L669.28-21.40Q672.16-21.40 674.42-20.24Q676.68-19.08 677.92-16.88L677.92-16.88L675.00-15Q674.00-16.52 672.52-17.28Q671.04-18.04 669.24-18.04L669.24-18.04Q667.16-18.04 665.50-17.12Q663.84-16.20 662.90-14.50Q661.96-12.80 661.96-10.60L661.96-10.60Q661.96-8.36 662.90-6.66Q663.84-4.96 665.50-4.04Q667.16-3.12 669.24-3.12L669.24-3.12Q671.04-3.12 672.52-3.88Q674.00-4.64 675.00-6.16L675.00-6.16L677.92-4.32Q676.68-2.12 674.42-0.94Q672.16 0.24 669.28 0.24L669.28 0.24Z M702.92-10.48Q702.92-10.04 702.84-9.32L702.84-9.32L685.64-9.32Q686.00-6.52 688.10-4.82Q690.20-3.12 693.32-3.12L693.32-3.12Q697.12-3.12 699.44-5.68L699.44-5.68L701.56-3.20Q700.12-1.52 697.98-0.64Q695.84 0.24 693.20 0.24L693.20 0.24Q689.84 0.24 687.24-1.14Q684.64-2.52 683.22-5Q681.80-7.48 681.80-10.60L681.80-10.60Q681.80-13.68 683.18-16.16Q684.56-18.64 686.98-20.02Q689.40-21.40 692.44-21.40L692.44-21.40Q695.48-21.40 697.86-20.02Q700.24-18.64 701.58-16.16Q702.92-13.68 702.92-10.48L702.92-10.48ZM692.44-18.16Q689.68-18.16 687.82-16.48Q685.96-14.80 685.64-12.08L685.64-12.08L699.24-12.08Q698.92-14.76 697.06-16.46Q695.20-18.16 692.44-18.16L692.44-18.16Z M715.52 0.24Q712.92 0.24 710.52-0.46Q708.12-1.16 706.76-2.24L706.76-2.24L708.36-5.28Q709.76-4.28 711.76-3.68Q713.76-3.08 715.80-3.08L715.80-3.08Q720.84-3.08 720.84-5.96L720.84-5.96Q720.84-6.92 720.16-7.48Q719.48-8.04 718.46-8.30Q717.44-8.56 715.56-8.88L715.56-8.88Q713-9.28 711.38-9.80Q709.76-10.32 708.60-11.56Q707.44-12.80 707.44-15.04L707.44-15.04Q707.44-17.92 709.84-19.66Q712.24-21.40 716.28-21.40L716.28-21.40Q718.40-21.40 720.52-20.88Q722.64-20.36 724-19.48L724-19.48L722.36-16.44Q719.76-18.12 716.24-18.12L716.24-18.12Q713.80-18.12 712.52-17.32Q711.24-16.52 711.24-15.20L711.24-15.20Q711.24-14.16 711.96-13.56Q712.68-12.96 713.74-12.68Q714.80-12.40 716.72-12.04L716.72-12.04Q719.28-11.60 720.86-11.10Q722.44-10.60 723.56-9.40Q724.68-8.20 724.68-6.04L724.68-6.04Q724.68-3.16 722.22-1.46Q719.76 0.24 715.52 0.24L715.52 0.24Z M736.76 0.24Q734.16 0.24 731.76-0.46Q729.36-1.16 728-2.24L728-2.24L729.60-5.28Q731-4.28 733-3.68Q735-3.08 737.04-3.08L737.04-3.08Q742.08-3.08 742.08-5.96L742.08-5.96Q742.08-6.92 741.40-7.48Q740.72-8.04 739.70-8.30Q738.68-8.56 736.80-8.88L736.80-8.88Q734.24-9.28 732.62-9.80Q731-10.32 729.84-11.56Q728.68-12.80 728.68-15.04L728.68-15.04Q728.68-17.92 731.08-19.66Q733.48-21.40 737.52-21.40L737.52-21.40Q739.64-21.40 741.76-20.88Q743.88-20.36 745.24-19.48L745.24-19.48L743.60-16.44Q741-18.12 737.48-18.12L737.48-18.12Q735.04-18.12 733.76-17.32Q732.48-16.52 732.48-15.20L732.48-15.20Q732.48-14.16 733.20-13.56Q733.92-12.96 734.98-12.68Q736.04-12.40 737.96-12.04L737.96-12.04Q740.52-11.60 742.10-11.10Q743.68-10.60 744.80-9.40Q745.92-8.20 745.92-6.04L745.92-6.04Q745.92-3.16 743.46-1.46Q741 0.24 736.76 0.24L736.76 0.24Z M771.08-10.48Q771.08-10.04 771-9.32L771-9.32L753.80-9.32Q754.16-6.52 756.26-4.82Q758.36-3.12 761.48-3.12L761.48-3.12Q765.28-3.12 767.60-5.68L767.60-5.68L769.72-3.20Q768.28-1.52 766.14-0.64Q764 0.24 761.36 0.24L761.36 0.24Q758 0.24 755.40-1.14Q752.80-2.52 751.38-5Q749.96-7.48 749.96-10.60L749.96-10.60Q749.96-13.68 751.34-16.16Q752.72-18.64 755.14-20.02Q757.56-21.40 760.60-21.40L760.60-21.40Q763.64-21.40 766.02-20.02Q768.40-18.64 769.74-16.16Q771.08-13.68 771.08-10.48L771.08-10.48ZM760.60-18.16Q757.84-18.16 755.98-16.48Q754.12-14.80 753.80-12.08L753.80-12.08L767.40-12.08Q767.08-14.76 765.22-16.46Q763.36-18.16 760.60-18.16L760.60-18.16Z M783.68 0.24Q781.08 0.24 778.68-0.46Q776.28-1.16 774.92-2.24L774.92-2.24L776.52-5.28Q777.92-4.28 779.92-3.68Q781.92-3.08 783.96-3.08L783.96-3.08Q789-3.08 789-5.96L789-5.96Q789-6.92 788.32-7.48Q787.64-8.04 786.62-8.30Q785.60-8.56 783.72-8.88L783.72-8.88Q781.16-9.28 779.54-9.80Q777.92-10.32 776.76-11.56Q775.60-12.80 775.60-15.04L775.60-15.04Q775.60-17.92 778-19.66Q780.40-21.40 784.44-21.40L784.44-21.40Q786.56-21.40 788.68-20.88Q790.80-20.36 792.16-19.48L792.16-19.48L790.52-16.44Q787.92-18.12 784.40-18.12L784.40-18.12Q781.96-18.12 780.68-17.32Q779.40-16.52 779.40-15.20L779.40-15.20Q779.40-14.16 780.12-13.56Q780.84-12.96 781.90-12.68Q782.96-12.40 784.88-12.04L784.88-12.04Q787.44-11.60 789.02-11.10Q790.60-10.60 791.72-9.40Q792.84-8.20 792.84-6.04L792.84-6.04Q792.84-3.16 790.38-1.46Q787.92 0.24 783.68 0.24L783.68 0.24Z M829.96-10.48Q829.96-10.04 829.88-9.32L829.88-9.32L812.68-9.32Q813.04-6.52 815.14-4.82Q817.24-3.12 820.36-3.12L820.36-3.12Q824.16-3.12 826.48-5.68L826.48-5.68L828.60-3.20Q827.16-1.52 825.02-0.64Q822.88 0.24 820.24 0.24L820.24 0.24Q816.88 0.24 814.28-1.14Q811.68-2.52 810.26-5Q808.84-7.48 808.84-10.60L808.84-10.60Q808.84-13.68 810.22-16.16Q811.60-18.64 814.02-20.02Q816.44-21.40 819.48-21.40L819.48-21.40Q822.52-21.40 824.90-20.02Q827.28-18.64 828.62-16.16Q829.96-13.68 829.96-10.48L829.96-10.48ZM819.48-18.16Q816.72-18.16 814.86-16.48Q813.00-14.80 812.68-12.08L812.68-12.08L826.28-12.08Q825.96-14.76 824.10-16.46Q822.24-18.16 819.48-18.16L819.48-18.16Z M844.24-26.76Q840.80-26.76 840.80-23.04L840.80-23.04L840.80-21.20L846.96-21.20L846.96-18.04L840.88-18.04L840.88 0L837.04 0L837.04-18.04L833.44-18.04L833.44-21.20L837.04-21.20L837.04-23.08Q837.04-26.24 838.88-28.08Q840.72-29.92 844.04-29.92L844.04-29.92Q845.32-29.92 846.44-29.60Q847.56-29.28 848.36-28.68L848.36-28.68L847.20-25.76Q845.88-26.76 844.24-26.76L844.24-26.76Z M859.56-26.76Q856.12-26.76 856.12-23.04L856.12-23.04L856.12-21.20L862.28-21.20L862.28-18.04L856.20-18.04L856.20 0L852.36 0L852.36-18.04L848.76-18.04L848.76-21.20L852.36-21.20L852.36-23.08Q852.36-26.24 854.20-28.08Q856.04-29.92 859.36-29.92L859.36-29.92Q860.64-29.92 861.76-29.60Q862.88-29.28 863.68-28.68L863.68-28.68L862.52-25.76Q861.20-26.76 859.56-26.76L859.56-26.76Z M875.88 0.24Q872.72 0.24 870.20-1.16Q867.68-2.56 866.26-5.02Q864.84-7.48 864.84-10.60L864.84-10.60Q864.84-13.72 866.26-16.18Q867.68-18.64 870.20-20.02Q872.72-21.40 875.88-21.40L875.88-21.40Q879.04-21.40 881.54-20.02Q884.04-18.64 885.46-16.18Q886.88-13.72 886.88-10.60L886.88-10.60Q886.88-7.48 885.46-5.02Q884.04-2.56 881.54-1.16Q879.04 0.24 875.88 0.24L875.88 0.24ZM875.88-3.12Q877.92-3.12 879.54-4.06Q881.16-5 882.08-6.70Q883.00-8.40 883.00-10.60L883.00-10.60Q883.00-12.80 882.08-14.50Q881.16-16.20 879.54-17.12Q877.92-18.04 875.88-18.04L875.88-18.04Q873.84-18.04 872.22-17.12Q870.60-16.20 869.66-14.50Q868.72-12.80 868.72-10.60L868.72-10.60Q868.72-8.40 869.66-6.70Q870.60-5 872.22-4.06Q873.84-3.12 875.88-3.12L875.88-3.12Z M897.08-17.64Q898.08-19.48 900.04-20.44Q902.00-21.40 904.80-21.40L904.80-21.40L904.80-17.68Q904.48-17.72 903.92-17.72L903.92-17.72Q900.80-17.72 899.02-15.86Q897.24-14 897.24-10.56L897.24-10.56L897.24 0L893.40 0L893.40-21.20L897.08-21.20L897.08-17.64Z M922.32-4L923.52-1.24Q922.68-0.52 921.44-0.14Q920.20 0.24 918.88 0.24L918.88 0.24Q915.68 0.24 913.92-1.48Q912.16-3.20 912.16-6.40L912.16-6.40L912.16-18.04L908.56-18.04L908.56-21.20L912.16-21.20L912.16-25.84L916.00-25.84L916.00-21.20L922.08-21.20L922.08-18.04L916.00-18.04L916.00-6.56Q916.00-4.84 916.86-3.92Q917.72-3 919.32-3L919.32-3Q921.08-3 922.32-4L922.32-4Z M929.36 0L929.36-29.68L933.20-29.68L933.20 0L929.36 0Z M960.88-10.48Q960.88-10.04 960.80-9.32L960.80-9.32L943.60-9.32Q943.96-6.52 946.06-4.82Q948.16-3.12 951.28-3.12L951.28-3.12Q955.08-3.12 957.40-5.68L957.40-5.68L959.52-3.20Q958.08-1.52 955.94-0.64Q953.80 0.24 951.16 0.24L951.16 0.24Q947.80 0.24 945.20-1.14Q942.60-2.52 941.18-5Q939.76-7.48 939.76-10.60L939.76-10.60Q939.76-13.68 941.14-16.16Q942.52-18.64 944.94-20.02Q947.36-21.40 950.40-21.40L950.40-21.40Q953.44-21.40 955.82-20.02Q958.20-18.64 959.54-16.16Q960.88-13.68 960.88-10.48L960.88-10.48ZM950.40-18.16Q947.64-18.16 945.78-16.48Q943.92-14.80 943.60-12.08L943.60-12.08L957.20-12.08Q956.88-14.76 955.02-16.46Q953.16-18.16 950.40-18.16L950.40-18.16Z M973.48 0.24Q970.88 0.24 968.48-0.46Q966.08-1.16 964.72-2.24L964.72-2.24L966.32-5.28Q967.72-4.28 969.72-3.68Q971.72-3.08 973.76-3.08L973.76-3.08Q978.80-3.08 978.80-5.96L978.80-5.96Q978.80-6.92 978.12-7.48Q977.44-8.04 976.42-8.30Q975.40-8.56 973.52-8.88L973.52-8.88Q970.96-9.28 969.34-9.80Q967.72-10.32 966.56-11.56Q965.40-12.80 965.40-15.04L965.40-15.04Q965.40-17.92 967.80-19.66Q970.20-21.40 974.24-21.40L974.24-21.40Q976.36-21.40 978.48-20.88Q980.60-20.36 981.96-19.48L981.96-19.48L980.32-16.44Q977.72-18.12 974.20-18.12L974.20-18.12Q971.76-18.12 970.48-17.32Q969.20-16.52 969.20-15.20L969.20-15.20Q969.20-14.16 969.92-13.56Q970.64-12.96 971.70-12.68Q972.76-12.40 974.68-12.04L974.68-12.04Q977.24-11.60 978.82-11.10Q980.40-10.60 981.52-9.40Q982.64-8.20 982.64-6.04L982.64-6.04Q982.64-3.16 980.18-1.46Q977.72 0.24 973.48 0.24L973.48 0.24Z M994.72 0.24Q992.12 0.24 989.72-0.46Q987.32-1.16 985.96-2.24L985.96-2.24L987.56-5.28Q988.96-4.28 990.96-3.68Q992.96-3.08 995.00-3.08L995.00-3.08Q1000.04-3.08 1000.04-5.96L1000.04-5.96Q1000.04-6.92 999.36-7.48Q998.68-8.04 997.66-8.30Q996.64-8.56 994.76-8.88L994.76-8.88Q992.20-9.28 990.58-9.80Q988.96-10.32 987.80-11.56Q986.64-12.80 986.64-15.04L986.64-15.04Q986.64-17.92 989.04-19.66Q991.44-21.40 995.48-21.40L995.48-21.40Q997.60-21.40 999.72-20.88Q1001.84-20.36 1003.20-19.48L1003.20-19.48L1001.56-16.44Q998.96-18.12 995.44-18.12L995.44-18.12Q993.00-18.12 991.72-17.32Q990.44-16.52 990.44-15.20L990.44-15.20Q990.44-14.16 991.16-13.56Q991.88-12.96 992.94-12.68Q994.00-12.40 995.92-12.04L995.92-12.04Q998.48-11.60 1000.06-11.10Q1001.64-10.60 1002.76-9.40Q1003.88-8.20 1003.88-6.04L1003.88-6.04Q1003.88-3.16 1001.42-1.46Q998.96 0.24 994.72 0.24L994.72 0.24Z M1009.88 0L1009.88-29.68L1013.72-29.68L1013.72 0L1009.88 0Z M1037.24-21.20L1041.00-21.20L1030.72 2.12Q1029.36 5.36 1027.54 6.68Q1025.72 8 1023.16 8L1023.16 8Q1021.60 8 1020.14 7.50Q1018.68 7 1017.72 6.04L1017.72 6.04L1019.36 3.16Q1021.00 4.72 1023.16 4.72L1023.16 4.72Q1024.56 4.72 1025.50 3.98Q1026.44 3.24 1027.20 1.44L1027.20 1.44L1027.88-0.04L1018.52-21.20L1022.52-21.20L1029.92-4.24L1037.24-21.20Z"/></g>
</svg>
</g><g opacity="1" transform="rotate(0 140.2178 382.9963)">
<svg width="364.9005" height="70" x="140.2178" y="382.9963" version="1.1" preserveAspectRatio="none" viewBox="-0.68 -28 145.96 28">
  <g transform="matrix(1 0 0 1 0 0)" class="companyName"><path id="id-D6z1nYkh5" d="M28.88-28L28.04-23.80L9.20-5.28L24.88-5.28L23.80 0L-0.68 0L0.16-4.20L19.04-22.72L4.28-22.72L5.36-28L28.88-28Z M28 0L33.60-28L40.12-28L34.52 0L28 0Z M82.48-28L88.92-28L74.12 0L67.20 0L64.76-18.84L54.64 0L47.68 0L44.12-28L50.52-28L53.00-8.32L63.52-28L69.52-28L71.92-8.16L82.48-28Z M107.20 0L105.88-6L92.84-6L89.20 0L82.28 0L100.40-28L106.80-28L113.68 0L107.20 0ZM95.84-10.92L104.80-10.92L102.44-21.72L95.84-10.92Z M145.28-28L132.52-14.12L140.20 0L133.20 0L128.24-9.52L119.76 0L112.00 0L125.40-14.52L118.16-28L125.08-28L129.76-19L137.92-28L145.28-28Z"/></g>
</svg>
</g><g opacity="1" transform="rotate(0 52.6834 382.9963)">
<svg width="87.5344" height="70" x="52.6834" y="382.9963" version="1.1" preserveAspectRatio="none" viewBox="-4.6 -33.68 47.12 37.68">
  <g transform="matrix(1 0 0 1 0 0)" class="icon3"><path id="id-hTdFi603-2" d="M-4.60 4L15.88-33.68L24.12-33.68L3.64 4L-4.60 4Z M13.80 4L34.28-33.68L42.52-33.68L22.04 4L13.80 4Z"/></g>
</svg>
</g></svg></svg>