<svg version="1.1" preserveAspectRatio="none" xmlns="http://www.w3.org/2000/svg" width="500" height="500" viewBox="0 0 500 500"><rect width="100%" height="100%" fill="#0F222D" fill-opacity="1"/><svg viewBox="-12.9931 448 716.6547 130" width="333" height="60.405659796831024" x="83.5px" y="219.7972px" xmlns="http://www.w3.org/2000/svg" xmlns:xlink="http://www.w3.org/1999/xlink" preserveAspectRatio="none"><defs></defs><style>.background {fill:#0F222D;fill-opacity:1;}.companyName {fill:#EBE7D9;fill-opacity:1;}.icon3-str {stroke:#F55139;stroke-opacity:1;}.shapeStroke-str {stroke:#EBE7D9;stroke-opacity:1;}.text {fill:#EBE7D9;fill-opacity:1;}</style><g opacity="1" transform="rotate(0 151.2798 448)">
<svg width="388.1089" height="84" x="151.2798" y="448" version="1.1" preserveAspectRatio="none" viewBox="0 0 388.1089 84">
  <defs><rect x="0" y="0" width="388.1089" height="84" rx="0%" ry="0%" id="id-UPl23ini1721142948046"></rect></defs><use class="companyName shapeStroke-str" style="stroke-width:0;" xlink:href="#id-UPl23ini1721142948046"></use>
</svg>
</g><g opacity="1" transform="rotate(0 -12.9931 550)">
<svg width="716.6547" height="28" x="-12.9931" y="550" version="1.1" preserveAspectRatio="none" viewBox="1.88 -29.88 968.52 37.84">
  <g transform="matrix(1 0 0 1 0 0)" class="text"><path id="id-6izo4zJp47" d="M12.28 0.24Q9.16 0.24 6.30-0.76Q3.44-1.76 1.88-3.40L1.88-3.40L3.04-5.68Q4.56-4.16 7.08-3.22Q9.60-2.28 12.28-2.28L12.28-2.28Q16.04-2.28 17.92-3.66Q19.80-5.04 19.80-7.24L19.80-7.24Q19.80-8.92 18.78-9.92Q17.76-10.92 16.28-11.46Q14.80-12 12.16-12.64L12.16-12.64Q9-13.44 7.12-14.18Q5.24-14.92 3.90-16.44Q2.56-17.96 2.56-20.56L2.56-20.56Q2.56-22.68 3.68-24.42Q4.80-26.16 7.12-27.20Q9.44-28.24 12.88-28.24L12.88-28.24Q15.28-28.24 17.58-27.58Q19.88-26.92 21.56-25.76L21.56-25.76L20.56-23.40Q18.80-24.56 16.80-25.14Q14.80-25.72 12.88-25.72L12.88-25.72Q9.20-25.72 7.34-24.30Q5.48-22.88 5.48-20.64L5.48-20.64Q5.48-18.96 6.50-17.94Q7.52-16.92 9.06-16.38Q10.60-15.84 13.20-15.20L13.20-15.20Q16.28-14.44 18.18-13.70Q20.08-12.96 21.40-11.46Q22.72-9.96 22.72-7.40L22.72-7.40Q22.72-5.28 21.58-3.54Q20.44-1.80 18.08-0.78Q15.72 0.24 12.28 0.24L12.28 0.24Z M38.64-3.32L39.64-1.28Q38.84-0.56 37.66-0.18Q36.48 0.20 35.20 0.20L35.20 0.20Q32.24 0.20 30.64-1.40Q29.04-3 29.04-5.92L29.04-5.92L29.04-18.64L25.28-18.64L25.28-21.04L29.04-21.04L29.04-25.64L31.88-25.64L31.88-21.04L38.28-21.04L38.28-18.64L31.88-18.64L31.88-6.08Q31.88-4.20 32.82-3.22Q33.76-2.24 35.52-2.24L35.52-2.24Q36.40-2.24 37.22-2.52Q38.04-2.80 38.64-3.32L38.64-3.32Z M47.52-16.92Q48.52-19.04 50.50-20.12Q52.48-21.20 55.40-21.20L55.40-21.20L55.40-18.44L54.72-18.48Q51.40-18.48 49.52-16.44Q47.64-14.40 47.64-10.72L47.64-10.72L47.64 0L44.80 0L44.80-21.04L47.52-21.04L47.52-16.92Z M78.68-10.52L78.64-9.64L61.04-9.64Q61.28-6.36 63.56-4.34Q65.84-2.32 69.32-2.32L69.32-2.32Q71.28-2.32 72.92-3.02Q74.56-3.72 75.76-5.08L75.76-5.08L77.36-3.24Q75.96-1.56 73.86-0.68Q71.76 0.20 69.24 0.20L69.24 0.20Q66 0.20 63.50-1.18Q61-2.56 59.60-5Q58.20-7.44 58.20-10.52L58.20-10.52Q58.20-13.60 59.54-16.04Q60.88-18.48 63.22-19.84Q65.56-21.20 68.48-21.20L68.48-21.20Q71.40-21.20 73.72-19.84Q76.04-18.48 77.36-16.06Q78.68-13.64 78.68-10.52L78.68-10.52ZM68.48-18.76Q65.44-18.76 63.38-16.82Q61.32-14.88 61.04-11.76L61.04-11.76L75.96-11.76Q75.68-14.88 73.62-16.82Q71.56-18.76 68.48-18.76L68.48-18.76Z M91.24-21.20Q95.36-21.20 97.56-19.14Q99.76-17.08 99.76-13.04L99.76-13.04L99.76 0L97.04 0L97.04-3.28Q96.08-1.64 94.22-0.72Q92.36 0.20 89.80 0.20L89.80 0.20Q86.28 0.20 84.20-1.48Q82.12-3.16 82.12-5.92L82.12-5.92Q82.12-8.60 84.06-10.24Q86-11.88 90.24-11.88L90.24-11.88L96.92-11.88L96.92-13.16Q96.92-15.88 95.40-17.30Q93.88-18.72 90.96-18.72L90.96-18.72Q88.96-18.72 87.12-18.06Q85.28-17.40 83.96-16.24L83.96-16.24L82.68-18.36Q84.28-19.72 86.52-20.46Q88.76-21.20 91.24-21.20L91.24-21.20ZM90.24-2.04Q92.64-2.04 94.36-3.14Q96.08-4.24 96.92-6.32L96.92-6.32L96.92-9.76L90.32-9.76Q84.92-9.76 84.92-6L84.92-6Q84.92-4.16 86.32-3.10Q87.72-2.04 90.24-2.04L90.24-2.04Z M133.72-21.20Q137.68-21.20 139.94-18.92Q142.20-16.64 142.20-12.20L142.20-12.20L142.20 0L139.36 0L139.36-11.92Q139.36-15.20 137.78-16.92Q136.20-18.64 133.32-18.64L133.32-18.64Q130.04-18.64 128.16-16.62Q126.28-14.60 126.28-11.04L126.28-11.04L126.28 0L123.44 0L123.44-11.92Q123.44-15.20 121.86-16.92Q120.28-18.64 117.36-18.64L117.36-18.64Q114.12-18.64 112.22-16.62Q110.32-14.60 110.32-11.04L110.32-11.04L110.32 0L107.48 0L107.48-21.04L110.20-21.04L110.20-17.20Q111.32-19.12 113.32-20.16Q115.32-21.20 117.92-21.20L117.92-21.20Q120.56-21.20 122.50-20.08Q124.44-18.96 125.40-16.76L125.40-16.76Q126.56-18.84 128.74-20.02Q130.92-21.20 133.72-21.20L133.72-21.20Z M149.92 0L149.92-29.68L152.76-29.68L152.76 0L149.92 0Z M160.68 0L160.68-21.04L163.52-21.04L163.52 0L160.68 0ZM162.12-25.64Q161.24-25.64 160.64-26.24Q160.04-26.84 160.04-27.68L160.04-27.68Q160.04-28.48 160.64-29.08Q161.24-29.68 162.12-29.68L162.12-29.68Q163-29.68 163.60-29.10Q164.20-28.52 164.20-27.72L164.20-27.72Q164.20-26.84 163.60-26.24Q163-25.64 162.12-25.64L162.12-25.64Z M182.16-21.20Q186.12-21.20 188.46-18.90Q190.80-16.60 190.80-12.20L190.80-12.20L190.80 0L187.96 0L187.96-11.92Q187.96-15.20 186.32-16.92Q184.68-18.64 181.64-18.64L181.64-18.64Q178.24-18.64 176.26-16.62Q174.28-14.60 174.28-11.04L174.28-11.04L174.28 0L171.44 0L171.44-21.04L174.16-21.04L174.16-17.16Q175.32-19.08 177.38-20.14Q179.44-21.20 182.16-21.20L182.16-21.20Z M198.52 0L198.52-21.04L201.36-21.04L201.36 0L198.52 0ZM199.96-25.64Q199.08-25.64 198.48-26.24Q197.88-26.84 197.88-27.68L197.88-27.68Q197.88-28.48 198.48-29.08Q199.08-29.68 199.96-29.68L199.96-29.68Q200.84-29.68 201.44-29.10Q202.04-28.52 202.04-27.72L202.04-27.72Q202.04-26.84 201.44-26.24Q200.84-25.64 199.96-25.64L199.96-25.64Z M220-21.20Q223.96-21.20 226.30-18.90Q228.64-16.60 228.64-12.20L228.64-12.20L228.64 0L225.80 0L225.80-11.92Q225.80-15.20 224.16-16.92Q222.52-18.64 219.48-18.64L219.48-18.64Q216.08-18.64 214.10-16.62Q212.12-14.60 212.12-11.04L212.12-11.04L212.12 0L209.28 0L209.28-21.04L212-21.04L212-17.16Q213.16-19.08 215.22-20.14Q217.28-21.20 220-21.20L220-21.20Z M253.20-21.04L255.92-21.04L255.92-2.56Q255.92 2.80 253.30 5.38Q250.68 7.96 245.40 7.96L245.40 7.96Q242.48 7.96 239.86 7.10Q237.24 6.24 235.60 4.72L235.60 4.72L237.04 2.56Q238.56 3.92 240.74 4.68Q242.92 5.44 245.32 5.44L245.32 5.44Q249.32 5.44 251.20 3.58Q253.08 1.72 253.08-2.20L253.08-2.20L253.08-4.88Q251.76-2.88 249.62-1.84Q247.48-0.80 244.88-0.80L244.88-0.80Q241.92-0.80 239.50-2.10Q237.08-3.40 235.70-5.74Q234.32-8.08 234.32-11.04L234.32-11.04Q234.32-14 235.70-16.32Q237.08-18.64 239.48-19.92Q241.88-21.20 244.88-21.20L244.88-21.20Q247.56-21.20 249.72-20.12Q251.88-19.04 253.20-17L253.20-17L253.20-21.04ZM245.16-3.32Q247.44-3.32 249.28-4.30Q251.12-5.28 252.14-7.04Q253.16-8.80 253.16-11.04L253.16-11.04Q253.16-13.28 252.14-15.02Q251.12-16.76 249.30-17.74Q247.48-18.72 245.16-18.72L245.16-18.72Q242.88-18.72 241.06-17.76Q239.24-16.80 238.22-15.04Q237.20-13.28 237.20-11.04L237.20-11.04Q237.20-8.80 238.22-7.04Q239.24-5.28 241.06-4.30Q242.88-3.32 245.16-3.32L245.16-3.32Z M285.20-21.20Q288.16-21.20 290.56-19.86Q292.96-18.52 294.32-16.08Q295.68-13.64 295.68-10.52L295.68-10.52Q295.68-7.36 294.32-4.92Q292.96-2.48 290.58-1.14Q288.20 0.20 285.20 0.20L285.20 0.20Q282.64 0.20 280.58-0.86Q278.52-1.92 277.20-3.96L277.20-3.96L277.20 7.76L274.36 7.76L274.36-21.04L277.08-21.04L277.08-16.88Q278.36-18.96 280.46-20.08Q282.56-21.20 285.20-21.20L285.20-21.20ZM285.00-2.32Q287.20-2.32 289.00-3.34Q290.80-4.36 291.82-6.24Q292.84-8.12 292.84-10.52L292.84-10.52Q292.84-12.92 291.82-14.78Q290.80-16.64 289.00-17.68Q287.20-18.72 285.00-18.72L285.00-18.72Q282.76-18.72 280.98-17.68Q279.20-16.64 278.18-14.78Q277.16-12.92 277.16-10.52L277.16-10.52Q277.16-8.12 278.18-6.24Q279.20-4.36 280.98-3.34Q282.76-2.32 285.00-2.32L285.00-2.32Z M304.20-16.92Q305.20-19.04 307.18-20.12Q309.16-21.20 312.08-21.20L312.08-21.20L312.08-18.44L311.40-18.48Q308.08-18.48 306.20-16.44Q304.32-14.40 304.32-10.72L304.32-10.72L304.32 0L301.48 0L301.48-21.04L304.20-21.04L304.20-16.92Z M325.60 0.20Q322.56 0.20 320.12-1.18Q317.68-2.56 316.28-5Q314.88-7.44 314.88-10.52L314.88-10.52Q314.88-13.60 316.28-16.04Q317.68-18.48 320.12-19.84Q322.56-21.20 325.60-21.20L325.60-21.20Q328.64-21.20 331.08-19.84Q333.52-18.48 334.90-16.04Q336.28-13.60 336.28-10.52L336.28-10.52Q336.28-7.44 334.90-5Q333.52-2.56 331.08-1.18Q328.64 0.20 325.60 0.20L325.60 0.20ZM325.60-2.32Q327.84-2.32 329.62-3.34Q331.40-4.36 332.40-6.24Q333.40-8.12 333.40-10.52L333.40-10.52Q333.40-12.92 332.40-14.80Q331.40-16.68 329.62-17.70Q327.84-18.72 325.60-18.72L325.60-18.72Q323.36-18.72 321.58-17.70Q319.80-16.68 318.78-14.80Q317.76-12.92 317.76-10.52L317.76-10.52Q317.76-8.12 318.78-6.24Q319.80-4.36 321.58-3.34Q323.36-2.32 325.60-2.32L325.60-2.32Z M350.80 0.20Q347.68 0.20 345.22-1.16Q342.76-2.52 341.36-4.98Q339.96-7.44 339.96-10.52L339.96-10.52Q339.96-13.60 341.36-16.04Q342.76-18.48 345.22-19.84Q347.68-21.20 350.80-21.20L350.80-21.20Q353.52-21.20 355.66-20.14Q357.80-19.08 359.04-17.04L359.04-17.04L356.92-15.60Q355.88-17.16 354.28-17.94Q352.68-18.72 350.80-18.72L350.80-18.72Q348.52-18.72 346.70-17.70Q344.88-16.68 343.86-14.80Q342.84-12.92 342.84-10.52L342.84-10.52Q342.84-8.08 343.86-6.22Q344.88-4.36 346.70-3.34Q348.52-2.32 350.80-2.32L350.80-2.32Q352.68-2.32 354.28-3.08Q355.88-3.84 356.92-5.40L356.92-5.40L359.04-3.96Q357.80-1.92 355.64-0.86Q353.48 0.20 350.80 0.20L350.80 0.20Z M380.72-21.04L383.56-21.04L383.56 0L380.84 0L380.84-3.84Q379.72-1.92 377.76-0.86Q375.80 0.20 373.28 0.20L373.28 0.20Q369.16 0.20 366.78-2.10Q364.40-4.40 364.40-8.84L364.40-8.84L364.40-21.04L367.24-21.04L367.24-9.12Q367.24-5.80 368.88-4.08Q370.52-2.36 373.56-2.36L373.56-2.36Q376.88-2.36 378.80-4.38Q380.72-6.40 380.72-10L380.72-10L380.72-21.04Z M394.24-16.92Q395.24-19.04 397.22-20.12Q399.20-21.20 402.12-21.20L402.12-21.20L402.12-18.44L401.44-18.48Q398.12-18.48 396.24-16.44Q394.36-14.40 394.36-10.72L394.36-10.72L394.36 0L391.52 0L391.52-21.04L394.24-21.04L394.24-16.92Z M425.40-10.52L425.36-9.64L407.76-9.64Q408.00-6.36 410.28-4.34Q412.56-2.32 416.04-2.32L416.04-2.32Q418.00-2.32 419.64-3.02Q421.28-3.72 422.48-5.08L422.48-5.08L424.08-3.24Q422.68-1.56 420.58-0.68Q418.48 0.20 415.96 0.20L415.96 0.20Q412.72 0.20 410.22-1.18Q407.72-2.56 406.32-5Q404.92-7.44 404.92-10.52L404.92-10.52Q404.92-13.60 406.26-16.04Q407.60-18.48 409.94-19.84Q412.28-21.20 415.20-21.20L415.20-21.20Q418.12-21.20 420.44-19.84Q422.76-18.48 424.08-16.06Q425.40-13.64 425.40-10.52L425.40-10.52ZM415.20-18.76Q412.16-18.76 410.10-16.82Q408.04-14.88 407.76-11.76L407.76-11.76L422.68-11.76Q422.40-14.88 420.34-16.82Q418.28-18.76 415.20-18.76L415.20-18.76Z M457.44-21.20Q461.40-21.20 463.66-18.92Q465.92-16.64 465.92-12.20L465.92-12.20L465.92 0L463.08 0L463.08-11.92Q463.08-15.20 461.50-16.92Q459.92-18.64 457.04-18.64L457.04-18.64Q453.76-18.64 451.88-16.62Q450.00-14.60 450.00-11.04L450.00-11.04L450.00 0L447.16 0L447.16-11.92Q447.16-15.20 445.58-16.92Q444.00-18.64 441.08-18.64L441.08-18.64Q437.84-18.64 435.94-16.62Q434.04-14.60 434.04-11.04L434.04-11.04L434.04 0L431.20 0L431.20-21.04L433.92-21.04L433.92-17.20Q435.04-19.12 437.04-20.16Q439.04-21.20 441.64-21.20L441.64-21.20Q444.28-21.20 446.22-20.08Q448.16-18.96 449.12-16.76L449.12-16.76Q450.28-18.84 452.46-20.02Q454.64-21.20 457.44-21.20L457.44-21.20Z M492.08-10.52L492.04-9.64L474.44-9.64Q474.68-6.36 476.96-4.34Q479.24-2.32 482.72-2.32L482.72-2.32Q484.68-2.32 486.32-3.02Q487.96-3.72 489.16-5.08L489.16-5.08L490.76-3.24Q489.36-1.56 487.26-0.68Q485.16 0.20 482.64 0.20L482.64 0.20Q479.40 0.20 476.90-1.18Q474.40-2.56 473.00-5Q471.60-7.44 471.60-10.52L471.60-10.52Q471.60-13.60 472.94-16.04Q474.28-18.48 476.62-19.84Q478.96-21.20 481.88-21.20L481.88-21.20Q484.80-21.20 487.12-19.84Q489.44-18.48 490.76-16.06Q492.08-13.64 492.08-10.52L492.08-10.52ZM481.88-18.76Q478.84-18.76 476.78-16.82Q474.72-14.88 474.44-11.76L474.44-11.76L489.36-11.76Q489.08-14.88 487.02-16.82Q484.96-18.76 481.88-18.76L481.88-18.76Z M508.60-21.20Q512.56-21.20 514.90-18.90Q517.24-16.60 517.24-12.20L517.24-12.20L517.24 0L514.40 0L514.40-11.92Q514.40-15.20 512.76-16.92Q511.12-18.64 508.08-18.64L508.08-18.64Q504.68-18.64 502.70-16.62Q500.72-14.60 500.72-11.04L500.72-11.04L500.72 0L497.88 0L497.88-21.04L500.60-21.04L500.60-17.16Q501.76-19.08 503.82-20.14Q505.88-21.20 508.60-21.20L508.60-21.20Z M535.04-3.32L536.04-1.28Q535.24-0.56 534.06-0.18Q532.88 0.20 531.60 0.20L531.60 0.20Q528.64 0.20 527.04-1.40Q525.44-3 525.44-5.92L525.44-5.92L525.44-18.64L521.68-18.64L521.68-21.04L525.44-21.04L525.44-25.64L528.28-25.64L528.28-21.04L534.68-21.04L534.68-18.64L528.28-18.64L528.28-6.08Q528.28-4.20 529.22-3.22Q530.16-2.24 531.92-2.24L531.92-2.24Q532.80-2.24 533.62-2.52Q534.44-2.80 535.04-3.32L535.04-3.32Z M562.52-21.20Q565.48-21.20 567.88-19.86Q570.28-18.52 571.64-16.08Q573.00-13.64 573.00-10.52L573.00-10.52Q573.00-7.36 571.64-4.92Q570.28-2.48 567.90-1.14Q565.52 0.20 562.52 0.20L562.52 0.20Q559.96 0.20 557.90-0.86Q555.84-1.92 554.52-3.96L554.52-3.96L554.52 7.76L551.68 7.76L551.68-21.04L554.40-21.04L554.40-16.88Q555.68-18.96 557.78-20.08Q559.88-21.20 562.52-21.20L562.52-21.20ZM562.32-2.32Q564.52-2.32 566.32-3.34Q568.12-4.36 569.14-6.24Q570.16-8.12 570.16-10.52L570.16-10.52Q570.16-12.92 569.14-14.78Q568.12-16.64 566.32-17.68Q564.52-18.72 562.32-18.72L562.32-18.72Q560.08-18.72 558.30-17.68Q556.52-16.64 555.50-14.78Q554.48-12.92 554.48-10.52L554.48-10.52Q554.48-8.12 555.50-6.24Q556.52-4.36 558.30-3.34Q560.08-2.32 562.32-2.32L562.32-2.32Z M581.52-16.92Q582.52-19.04 584.50-20.12Q586.48-21.20 589.40-21.20L589.40-21.20L589.40-18.44L588.72-18.48Q585.40-18.48 583.52-16.44Q581.64-14.40 581.64-10.72L581.64-10.72L581.64 0L578.80 0L578.80-21.04L581.52-21.04L581.52-16.92Z M602.92 0.20Q599.88 0.20 597.44-1.18Q595.00-2.56 593.60-5Q592.20-7.44 592.20-10.52L592.20-10.52Q592.20-13.60 593.60-16.04Q595.00-18.48 597.44-19.84Q599.88-21.20 602.92-21.20L602.92-21.20Q605.96-21.20 608.40-19.84Q610.84-18.48 612.22-16.04Q613.60-13.60 613.60-10.52L613.60-10.52Q613.60-7.44 612.22-5Q610.84-2.56 608.40-1.18Q605.96 0.20 602.92 0.20L602.92 0.20ZM602.92-2.32Q605.16-2.32 606.94-3.34Q608.72-4.36 609.72-6.24Q610.72-8.12 610.72-10.52L610.72-10.52Q610.72-12.92 609.72-14.80Q608.72-16.68 606.94-17.70Q605.16-18.72 602.92-18.72L602.92-18.72Q600.68-18.72 598.90-17.70Q597.12-16.68 596.10-14.80Q595.08-12.92 595.08-10.52L595.08-10.52Q595.08-8.12 596.10-6.24Q597.12-4.36 598.90-3.34Q600.68-2.32 602.92-2.32L602.92-2.32Z M628.12 0.20Q625.00 0.20 622.54-1.16Q620.08-2.52 618.68-4.98Q617.28-7.44 617.28-10.52L617.28-10.52Q617.28-13.60 618.68-16.04Q620.08-18.48 622.54-19.84Q625.00-21.20 628.12-21.20L628.12-21.20Q630.84-21.20 632.98-20.14Q635.12-19.08 636.36-17.04L636.36-17.04L634.24-15.60Q633.20-17.16 631.60-17.94Q630.00-18.72 628.12-18.72L628.12-18.72Q625.84-18.72 624.02-17.70Q622.20-16.68 621.18-14.80Q620.16-12.92 620.16-10.52L620.16-10.52Q620.16-8.08 621.18-6.22Q622.20-4.36 624.02-3.34Q625.84-2.32 628.12-2.32L628.12-2.32Q630.00-2.32 631.60-3.08Q633.20-3.84 634.24-5.40L634.24-5.40L636.36-3.96Q635.12-1.92 632.96-0.86Q630.80 0.20 628.12 0.20L628.12 0.20Z M659.92-10.52L659.88-9.64L642.28-9.64Q642.52-6.36 644.80-4.34Q647.08-2.32 650.56-2.32L650.56-2.32Q652.52-2.32 654.16-3.02Q655.80-3.72 657.00-5.08L657.00-5.08L658.60-3.24Q657.20-1.56 655.10-0.68Q653.00 0.20 650.48 0.20L650.48 0.20Q647.24 0.20 644.74-1.18Q642.24-2.56 640.84-5Q639.44-7.44 639.44-10.52L639.44-10.52Q639.44-13.60 640.78-16.04Q642.12-18.48 644.46-19.84Q646.80-21.20 649.72-21.20L649.72-21.20Q652.64-21.20 654.96-19.84Q657.28-18.48 658.60-16.06Q659.92-13.64 659.92-10.52L659.92-10.52ZM649.72-18.76Q646.68-18.76 644.62-16.82Q642.56-14.88 642.28-11.76L642.28-11.76L657.20-11.76Q656.92-14.88 654.86-16.82Q652.80-18.76 649.72-18.76L649.72-18.76Z M671.36 0.20Q668.80 0.20 666.46-0.54Q664.12-1.28 662.80-2.40L662.80-2.40L664.08-4.64Q665.40-3.60 667.40-2.94Q669.40-2.28 671.56-2.28L671.56-2.28Q674.44-2.28 675.82-3.18Q677.20-4.08 677.20-5.72L677.20-5.72Q677.20-6.88 676.44-7.54Q675.68-8.20 674.52-8.54Q673.36-8.88 671.44-9.20L671.44-9.20Q668.88-9.68 667.32-10.18Q665.76-10.68 664.66-11.88Q663.56-13.08 663.56-15.20L663.56-15.20Q663.56-17.84 665.76-19.52Q667.96-21.20 671.88-21.20L671.88-21.20Q673.92-21.20 675.96-20.66Q678.00-20.12 679.32-19.24L679.32-19.24L678.08-16.96Q675.48-18.76 671.88-18.76L671.88-18.76Q669.16-18.76 667.78-17.80Q666.40-16.84 666.40-15.28L666.40-15.28Q666.40-14.08 667.18-13.36Q667.96-12.64 669.12-12.30Q670.28-11.96 672.32-11.60L672.32-11.60Q674.84-11.12 676.36-10.64Q677.88-10.16 678.96-9Q680.04-7.84 680.04-5.80L680.04-5.80Q680.04-3.04 677.74-1.42Q675.44 0.20 671.36 0.20L671.36 0.20Z M690.92 0.20Q688.36 0.20 686.02-0.54Q683.68-1.28 682.36-2.40L682.36-2.40L683.64-4.64Q684.96-3.60 686.96-2.94Q688.96-2.28 691.12-2.28L691.12-2.28Q694-2.28 695.38-3.18Q696.76-4.08 696.76-5.72L696.76-5.72Q696.76-6.88 696-7.54Q695.24-8.20 694.08-8.54Q692.92-8.88 691-9.20L691-9.20Q688.44-9.68 686.88-10.18Q685.32-10.68 684.22-11.88Q683.12-13.08 683.12-15.20L683.12-15.20Q683.12-17.84 685.32-19.52Q687.52-21.20 691.44-21.20L691.44-21.20Q693.48-21.20 695.52-20.66Q697.56-20.12 698.88-19.24L698.88-19.24L697.64-16.96Q695.04-18.76 691.44-18.76L691.44-18.76Q688.72-18.76 687.34-17.80Q685.96-16.84 685.96-15.28L685.96-15.28Q685.96-14.08 686.74-13.36Q687.52-12.64 688.68-12.30Q689.84-11.96 691.88-11.60L691.88-11.60Q694.40-11.12 695.92-10.64Q697.44-10.16 698.52-9Q699.60-7.84 699.60-5.80L699.60-5.80Q699.60-3.04 697.30-1.42Q695 0.20 690.92 0.20L690.92 0.20Z M723.20-10.52L723.16-9.64L705.56-9.64Q705.80-6.36 708.08-4.34Q710.36-2.32 713.84-2.32L713.84-2.32Q715.80-2.32 717.44-3.02Q719.08-3.72 720.28-5.08L720.28-5.08L721.88-3.24Q720.48-1.56 718.38-0.68Q716.28 0.20 713.76 0.20L713.76 0.20Q710.52 0.20 708.02-1.18Q705.52-2.56 704.12-5Q702.72-7.44 702.72-10.52L702.72-10.52Q702.72-13.60 704.06-16.04Q705.40-18.48 707.74-19.84Q710.08-21.20 713-21.20L713-21.20Q715.92-21.20 718.24-19.84Q720.56-18.48 721.88-16.06Q723.20-13.64 723.20-10.52L723.20-10.52ZM713-18.76Q709.96-18.76 707.90-16.82Q705.84-14.88 705.56-11.76L705.56-11.76L720.48-11.76Q720.20-14.88 718.14-16.82Q716.08-18.76 713-18.76L713-18.76Z M734.64 0.20Q732.08 0.20 729.74-0.54Q727.40-1.28 726.08-2.40L726.08-2.40L727.36-4.64Q728.68-3.60 730.68-2.94Q732.68-2.28 734.84-2.28L734.84-2.28Q737.72-2.28 739.10-3.18Q740.48-4.08 740.48-5.72L740.48-5.72Q740.48-6.88 739.72-7.54Q738.96-8.20 737.80-8.54Q736.64-8.88 734.72-9.20L734.72-9.20Q732.16-9.68 730.60-10.18Q729.04-10.68 727.94-11.88Q726.84-13.08 726.84-15.20L726.84-15.20Q726.84-17.84 729.04-19.52Q731.24-21.20 735.16-21.20L735.16-21.20Q737.20-21.20 739.24-20.66Q741.28-20.12 742.60-19.24L742.60-19.24L741.36-16.96Q738.76-18.76 735.16-18.76L735.16-18.76Q732.44-18.76 731.06-17.80Q729.68-16.84 729.68-15.28L729.68-15.28Q729.68-14.08 730.46-13.36Q731.24-12.64 732.40-12.30Q733.56-11.96 735.60-11.60L735.60-11.60Q738.12-11.12 739.64-10.64Q741.16-10.16 742.24-9Q743.32-7.84 743.32-5.80L743.32-5.80Q743.32-3.04 741.02-1.42Q738.72 0.20 734.64 0.20L734.64 0.20Z M777.40-10.52L777.36-9.64L759.76-9.64Q760.00-6.36 762.28-4.34Q764.56-2.32 768.04-2.32L768.04-2.32Q770.00-2.32 771.64-3.02Q773.28-3.72 774.48-5.08L774.48-5.08L776.08-3.24Q774.68-1.56 772.58-0.68Q770.48 0.20 767.96 0.20L767.96 0.20Q764.72 0.20 762.22-1.18Q759.72-2.56 758.32-5Q756.92-7.44 756.92-10.52L756.92-10.52Q756.92-13.60 758.26-16.04Q759.60-18.48 761.94-19.84Q764.28-21.20 767.20-21.20L767.20-21.20Q770.12-21.20 772.44-19.84Q774.76-18.48 776.08-16.06Q777.40-13.64 777.40-10.52L777.40-10.52ZM767.20-18.76Q764.16-18.76 762.10-16.82Q760.04-14.88 759.76-11.76L759.76-11.76L774.68-11.76Q774.40-14.88 772.34-16.82Q770.28-18.76 767.20-18.76L767.20-18.76Z M790.16-27.48Q788.32-27.48 787.38-26.48Q786.44-25.48 786.44-23.52L786.44-23.52L786.44-21.04L792.92-21.04L792.92-18.64L786.52-18.64L786.52 0L783.68 0L783.68-18.64L779.92-18.64L779.92-21.04L783.68-21.04L783.68-23.64Q783.68-26.52 785.34-28.20Q787.00-29.88 790.04-29.88L790.04-29.88Q791.24-29.88 792.36-29.54Q793.48-29.20 794.24-28.56L794.24-28.56L793.28-26.44Q792.04-27.48 790.16-27.48L790.16-27.48Z M803.72-27.48Q801.88-27.48 800.94-26.48Q800.00-25.48 800.00-23.52L800.00-23.52L800.00-21.04L806.48-21.04L806.48-18.64L800.08-18.64L800.08 0L797.24 0L797.24-18.64L793.48-18.64L793.48-21.04L797.24-21.04L797.24-23.64Q797.24-26.52 798.90-28.20Q800.56-29.88 803.60-29.88L803.60-29.88Q804.80-29.88 805.92-29.54Q807.04-29.20 807.80-28.56L807.80-28.56L806.84-26.44Q805.60-27.48 803.72-27.48L803.72-27.48Z M818.56 0.20Q815.52 0.20 813.08-1.18Q810.64-2.56 809.24-5Q807.84-7.44 807.84-10.52L807.84-10.52Q807.84-13.60 809.24-16.04Q810.64-18.48 813.08-19.84Q815.52-21.20 818.56-21.20L818.56-21.20Q821.60-21.20 824.04-19.84Q826.48-18.48 827.86-16.04Q829.24-13.60 829.24-10.52L829.24-10.52Q829.24-7.44 827.86-5Q826.48-2.56 824.04-1.18Q821.60 0.20 818.56 0.20L818.56 0.20ZM818.56-2.32Q820.80-2.32 822.58-3.34Q824.36-4.36 825.36-6.24Q826.36-8.12 826.36-10.52L826.36-10.52Q826.36-12.92 825.36-14.80Q824.36-16.68 822.58-17.70Q820.80-18.72 818.56-18.72L818.56-18.72Q816.32-18.72 814.54-17.70Q812.76-16.68 811.74-14.80Q810.72-12.92 810.72-10.52L810.72-10.52Q810.72-8.12 811.74-6.24Q812.76-4.36 814.54-3.34Q816.32-2.32 818.56-2.32L818.56-2.32Z M837.76-16.92Q838.76-19.04 840.74-20.12Q842.72-21.20 845.64-21.20L845.64-21.20L845.64-18.44L844.96-18.48Q841.64-18.48 839.76-16.44Q837.88-14.40 837.88-10.72L837.88-10.72L837.88 0L835.04 0L835.04-21.04L837.76-21.04L837.76-16.92Z M861.76-3.32L862.76-1.28Q861.96-0.56 860.78-0.18Q859.60 0.20 858.32 0.20L858.32 0.20Q855.36 0.20 853.76-1.40Q852.16-3 852.16-5.92L852.16-5.92L852.16-18.64L848.40-18.64L848.40-21.04L852.16-21.04L852.16-25.64L855.00-25.64L855.00-21.04L861.40-21.04L861.40-18.64L855.00-18.64L855.00-6.08Q855.00-4.20 855.94-3.22Q856.88-2.24 858.64-2.24L858.64-2.24Q859.52-2.24 860.34-2.52Q861.16-2.80 861.76-3.32L861.76-3.32Z M867.92 0L867.92-29.68L870.76-29.68L870.76 0L867.92 0Z M897.04-10.52L897.00-9.64L879.40-9.64Q879.64-6.36 881.92-4.34Q884.20-2.32 887.68-2.32L887.68-2.32Q889.64-2.32 891.28-3.02Q892.92-3.72 894.12-5.08L894.12-5.08L895.72-3.24Q894.32-1.56 892.22-0.68Q890.12 0.20 887.60 0.20L887.60 0.20Q884.36 0.20 881.86-1.18Q879.36-2.56 877.96-5Q876.56-7.44 876.56-10.52L876.56-10.52Q876.56-13.60 877.90-16.04Q879.24-18.48 881.58-19.84Q883.92-21.20 886.84-21.20L886.84-21.20Q889.76-21.20 892.08-19.84Q894.40-18.48 895.72-16.06Q897.04-13.64 897.04-10.52L897.04-10.52ZM886.84-18.76Q883.80-18.76 881.74-16.82Q879.68-14.88 879.40-11.76L879.40-11.76L894.32-11.76Q894.04-14.88 891.98-16.82Q889.92-18.76 886.84-18.76L886.84-18.76Z M908.48 0.20Q905.92 0.20 903.58-0.54Q901.24-1.28 899.92-2.40L899.92-2.40L901.20-4.64Q902.52-3.60 904.52-2.94Q906.52-2.28 908.68-2.28L908.68-2.28Q911.56-2.28 912.94-3.18Q914.32-4.08 914.32-5.72L914.32-5.72Q914.32-6.88 913.56-7.54Q912.80-8.20 911.64-8.54Q910.48-8.88 908.56-9.20L908.56-9.20Q906.00-9.68 904.44-10.18Q902.88-10.68 901.78-11.88Q900.68-13.08 900.68-15.20L900.68-15.20Q900.68-17.84 902.88-19.52Q905.08-21.20 909.00-21.20L909.00-21.20Q911.04-21.20 913.08-20.66Q915.12-20.12 916.44-19.24L916.44-19.24L915.20-16.96Q912.60-18.76 909.00-18.76L909.00-18.76Q906.28-18.76 904.90-17.80Q903.52-16.84 903.52-15.28L903.52-15.28Q903.52-14.08 904.30-13.36Q905.08-12.64 906.24-12.30Q907.40-11.96 909.44-11.60L909.44-11.60Q911.96-11.12 913.48-10.64Q915.00-10.16 916.08-9Q917.16-7.84 917.16-5.80L917.16-5.80Q917.16-3.04 914.86-1.42Q912.56 0.20 908.48 0.20L908.48 0.20Z M928.04 0.20Q925.48 0.20 923.14-0.54Q920.80-1.28 919.48-2.40L919.48-2.40L920.76-4.64Q922.08-3.60 924.08-2.94Q926.08-2.28 928.24-2.28L928.24-2.28Q931.12-2.28 932.50-3.18Q933.88-4.08 933.88-5.72L933.88-5.72Q933.88-6.88 933.12-7.54Q932.36-8.20 931.20-8.54Q930.04-8.88 928.12-9.20L928.12-9.20Q925.56-9.68 924.00-10.18Q922.44-10.68 921.34-11.88Q920.24-13.08 920.24-15.20L920.24-15.20Q920.24-17.84 922.44-19.52Q924.64-21.20 928.56-21.20L928.56-21.20Q930.60-21.20 932.64-20.66Q934.68-20.12 936.00-19.24L936.00-19.24L934.76-16.96Q932.16-18.76 928.56-18.76L928.56-18.76Q925.84-18.76 924.46-17.80Q923.08-16.84 923.08-15.28L923.08-15.28Q923.08-14.08 923.86-13.36Q924.64-12.64 925.80-12.30Q926.96-11.96 929.00-11.60L929.00-11.60Q931.52-11.12 933.04-10.64Q934.56-10.16 935.64-9Q936.72-7.84 936.72-5.80L936.72-5.80Q936.72-3.04 934.42-1.42Q932.12 0.20 928.04 0.20L928.04 0.20Z M941.96 0L941.96-29.68L944.80-29.68L944.80 0L941.96 0Z M967.60-21.04L970.40-21.04L959.88 2.52Q958.60 5.48 956.92 6.72Q955.24 7.96 952.88 7.96L952.88 7.96Q951.36 7.96 950.04 7.48Q948.72 7 947.76 6.04L947.76 6.04L949.08 3.92Q950.68 5.52 952.92 5.52L952.92 5.52Q954.36 5.52 955.38 4.72Q956.40 3.92 957.28 2L957.28 2L958.20-0.04L948.80-21.04L951.76-21.04L959.68-3.16L967.60-21.04Z"/></g>
</svg>
</g><g opacity="1" transform="rotate(0 153.2798 450)">
<svg width="384.1089" height="80" x="153.2798" y="450" version="1.1" preserveAspectRatio="none" viewBox="1.84 -28.8 138.28 28.8">
  <g transform="matrix(1 0 0 1 0 0)" class="background"><path id="id-D6z1nYkh5" d="M23.12 0L23.12 0L3.28 0Q2.52 0 2.18-0.34Q1.84-0.68 1.84-1.44L1.84-1.44L1.84-6.80Q1.84-7.56 2.08-8.14Q2.32-8.72 2.84-9.28L2.84-9.28L12.56-21.08L4-21.08Q3.24-21.08 2.90-21.42Q2.56-21.76 2.56-22.52L2.56-22.52L2.56-27.36Q2.56-28.12 2.90-28.46Q3.24-28.80 4-28.80L4-28.80L22.40-28.80Q23.16-28.80 23.50-28.46Q23.84-28.12 23.84-27.36L23.84-27.36L23.84-21.40Q23.84-20.60 23.60-20.02Q23.36-19.44 22.84-18.88L22.84-18.88L13.56-7.64L23.12-7.64Q23.88-7.64 24.22-7.30Q24.56-6.96 24.56-6.20L24.56-6.20L24.56-1.44Q24.56-0.68 24.22-0.34Q23.88 0 23.12 0Z M47 0L29.96 0Q29.20 0 28.86-0.34Q28.52-0.68 28.52-1.44L28.52-1.44L28.52-6.20Q28.52-6.96 28.86-7.30Q29.20-7.64 29.96-7.64L29.96-7.64L33.92-7.64L33.92-21.08L29.96-21.08Q29.20-21.08 28.86-21.42Q28.52-21.76 28.52-22.52L28.52-22.52L28.52-27.36Q28.52-28.12 28.86-28.46Q29.20-28.80 29.96-28.80L29.96-28.80L47-28.80Q47.76-28.80 48.10-28.46Q48.44-28.12 48.44-27.36L48.44-27.36L48.44-22.52Q48.44-21.76 48.10-21.42Q47.76-21.08 47-21.08L47-21.08L43.12-21.08L43.12-7.64L47-7.64Q47.76-7.64 48.10-7.30Q48.44-6.96 48.44-6.20L48.44-6.20L48.44-1.44Q48.44-0.68 48.10-0.34Q47.76 0 47 0L47 0Z M74.04-28.80L74.04-28.80L80-28.80Q80.76-28.80 81.10-28.46Q81.44-28.12 81.44-27.36L81.44-27.36L81.44-11.84Q81.44-10.56 81.34-9.46Q81.24-8.36 80.72-6.88L80.72-6.88L78.72-1.44Q78.52-0.84 78.14-0.42Q77.76 0 77.12 0L77.12 0L71.80 0Q71.16 0 70.64-0.28Q70.12-0.56 69.96-1.20L69.96-1.20L68.12-7.72Q68-8.12 67.82-8.26Q67.64-8.40 67.40-8.40L67.40-8.40L67.04-8.40Q66.80-8.40 66.62-8.26Q66.44-8.12 66.32-7.72L66.32-7.72L64.44-1.20Q64.28-0.60 63.84-0.30Q63.40 0 62.76 0L62.76 0L57.48 0Q56.84 0 56.38-0.40Q55.92-0.80 55.72-1.44L55.72-1.44L53.72-6.96Q53.20-8.44 53.10-9.54Q53-10.64 53-11.92L53-11.92L53-27.36Q53-28.12 53.34-28.46Q53.68-28.80 54.44-28.80L54.44-28.80L60.60-28.80Q61.36-28.80 61.70-28.46Q62.04-28.12 62.04-27.36L62.04-27.36L62.04-12.64L64.36-17.68Q64.68-18.36 65.20-18.64Q65.72-18.92 66.48-18.92L66.48-18.92L68.16-18.92Q68.92-18.92 69.44-18.64Q69.96-18.36 70.28-17.68L70.28-17.68L72.60-12.64L72.60-27.36Q72.60-28.12 72.94-28.46Q73.28-28.80 74.04-28.80Z M97.04-20.40L97.04-20.40L95.16-14.32L101.44-14.32L99.56-20.40Q99.40-20.76 99.22-20.92Q99.04-21.08 98.80-21.08L98.80-21.08L97.80-21.08Q97.56-21.08 97.38-20.92Q97.20-20.76 97.04-20.40ZM94.76-7.04L94.76-1.44Q94.76-0.68 94.42-0.34Q94.08 0 93.32 0L93.32 0L87.44 0Q86.68 0 86.34-0.34Q86-0.68 86-1.44L86-1.44L86-12Q86-13.20 86.38-14.76Q86.76-16.32 87.56-18.40L87.56-18.40L91.04-27.48Q91.28-28.16 91.78-28.48Q92.28-28.80 93.08-28.80L93.08-28.80L103.84-28.80Q104.60-28.80 105.10-28.48Q105.60-28.16 105.84-27.48L105.84-27.48L109.32-18.40Q110.12-16.32 110.50-14.76Q110.88-13.20 110.88-12L110.88-12L110.88-1.44Q110.88-0.68 110.54-0.34Q110.20 0 109.44 0L109.44 0L103.40 0Q102.60 0 102.22-0.34Q101.84-0.68 101.84-1.44L101.84-1.44L101.84-7.04L94.76-7.04Z M124.40-5.40L124.40-1.44Q124.40-0.68 124.06-0.34Q123.72 0 122.96 0L122.96 0L116.88 0Q116.12 0 115.78-0.34Q115.44-0.68 115.44-1.44L115.44-1.44L115.44-5.72Q115.44-7.56 115.76-8.48Q116.08-9.40 116.96-10.64L116.96-10.64L120.20-15L116.96-19.36Q116.04-20.60 115.74-21.52Q115.44-22.44 115.44-24.28L115.44-24.28L115.44-27.36Q115.44-28.12 115.78-28.46Q116.12-28.80 116.88-28.80L116.88-28.80L123.04-28.80Q123.80-28.80 124.14-28.46Q124.48-28.12 124.48-27.36L124.48-27.36L124.48-24.60Q124.48-24.20 124.52-23.76Q124.56-23.32 124.84-22.92L124.84-22.92L126.60-20.40Q126.80-20.08 127.02-19.90Q127.24-19.72 127.56-19.72L127.56-19.72L128.04-19.72Q128.36-19.72 128.56-19.90Q128.76-20.08 129-20.40L129-20.40L130.80-22.92Q131.08-23.32 131.12-23.76Q131.16-24.20 131.16-24.60L131.16-24.60L131.16-27.36Q131.16-28.12 131.50-28.46Q131.84-28.80 132.60-28.80L132.60-28.80L138.68-28.80Q139.44-28.80 139.78-28.46Q140.12-28.12 140.12-27.36L140.12-27.36L140.12-24.28Q140.12-22.44 139.80-21.52Q139.48-20.60 138.60-19.36L138.60-19.36L135.36-14.96L138.60-10.64Q139.52-9.40 139.82-8.48Q140.12-7.56 140.12-5.72L140.12-5.72L140.12-1.44Q140.12-0.68 139.78-0.34Q139.44 0 138.68 0L138.68 0L132.60 0Q131.84 0 131.50-0.34Q131.16-0.68 131.16-1.44L131.16-1.44L131.16-5.40Q131.16-5.80 131.12-6.24Q131.08-6.68 130.80-7.08L130.80-7.08L129.04-9.60Q128.80-9.96 128.60-10.12Q128.40-10.28 128.08-10.28L128.08-10.28L127.52-10.28Q127.20-10.28 127-10.12Q126.80-9.96 126.56-9.60L126.56-9.60L124.76-7.08Q124.48-6.68 124.44-6.24Q124.40-5.80 124.40-5.40L124.40-5.40Z"/></g>
</svg>
</g></svg></svg>